<?xml version="1.0" encoding="UTF-8"?>
<svg version="1.1" viewBox="0 0 1040 1024" width="1040" height="1024" xmlns="http://www.w3.org/2000/svg">
<path transform="translate(698,178)" d="m0 0 6 1 3 5-2 7-8 10-14 19-11 15-14 19-14 20-14 18-4 6 1 4 16 15 8 7v2l4 2 17 17 8 7 22 22v31l-2 5-12 13-9 6h-36l-6-2-9-19-10-6-17-8-3-1h-7l-14 2-17-1-13-4-13-8-9-8h-17l-25 5-17 6-17 8-15 10-10 8-10 9-9 10-12 17-6 10-10 24-5 19-2 13v33l3 19 6 20 8 18 8 14 9 12 8 10 8 7 11 9 19 12 17 8 15 5 13 3 29 2 20-2 21-5 16-6 20-11 13-10 14-12 7-8 10-14 8-13 7-14 7-22 3-15 1-13v-20l-2-18-6-22-7-17-9-15v-3l11 1h10l13-2 9-4 6-4 4-2 2-4 4-4 4 2 8 12 10 17 11 23 6 20-1-12-5-22-6-20-7-18-9-18v-8l1-12v-6h3l11 19 8 16 11 28 7 26 4 23 2 22v24l-2 23-5 26-7 24-10 24-12 22-12 17-13 16-11 12-10 10-22 18-17 11-16 9-19 8-20 7-14 4-32 5h-40l-22-3-18-4-21-6-24-10-12-6-18-11-12-9-11-9-10-9-4-3v-2l-4-2-7-8-8-9-12-17-10-16-11-21-8-21-8-27-4-20-2-20v-25l2-23 5-26 4-15 7-21 11-25 11-20 11-16 8-10 5-7-16 4-16 6-29 14-2-1 2-5 10-14 12-16 13-15 11-12 14-13 14-11 15-11 22-12 9-4h2v-2l-8-1-13-3-1-3 16-6 27-10 25-7 20-4 18-2h27l21 2 15 3 5-1 15-11 12-7h3l1 6v46h3l11-9 12-10 14-11 16-13 14-11 16-13 10-8 13-11zm-39 49-8 6-1 1v6h2v-2h2l6-9zm-178 19-2 2 1 3 6-1 1-3-1-1zm157 0 1 3zm-106 2-2 5-5-1 1 3-4 1v2l-3-1-2 5h11l7-9 3-5zm106 2-1 4h2zm-182 1v3l5-1-2-2zm-15 1-13 4v2l13 4h3v-2l-6-2 1-2 6-3zm193 4 1 2zm-1 2v3zm-130 3-3 2 7 1 3-2-1-1zm110 5-11 8v3l3 2 6 7 4 1 2-4-1-10 1-6-3 1zm-171 2-27 8-25 12-18 11-16 12-14 12-17 17-3 5 15-3 21-5 10-9 14-11 12-9 10-7 12-7 1-2h-10l3-5 10-7 1-1 8-1v-2h6v4h-7l-3 8 6-2 25-10 3-1 2-5-6 1-6-1v-2zm18 4 1 2h2v-2zm27 11m-4 1 4 1zm-4 1-22 7-21 9-24 13-19 14-10 8-2 3-3 9-8 8-7 10-8 17-6 12-9 25-5 24-2 19v34l3 20 5 23 8 24 8 16 3 5 1-3-6-26-2-18-3-8-3-3v-2l3-1 1-5v-42l2-17 5-25 6-21 5-13 11-24 9-14 12-17 5-6v-2h2l7-8 8-8 16-12 24-15 14-7 6-2zm98 1-2 1v2l-15 2-24 2-17 4-20 7-25 13-14 10-11 9-14 14-13 17-12 20-9 19-2 7 7-6 9-9 13-10 15-9 16-8 24-8 13-3 19-2-4-17-1-12h11l4 1 2 16 5 12 9 10 9 6 10 4 5 1h17l11-3 8 1 28 13 9 6 5 8 5 10 3 1h16l7-1 10-9 3-6v-19l-8-8-8-7-8-8-8-7-12-12-8-7-14-14-8-7-10-10-10-8-7-4-5-2zm-274 187-3 2 1 5 2 6 2-1 1-11zm376 5 7 33 3 25 1 19-1 26-3 19-8 31-7 18-8 16-8 14-10 14-10 13-13 13-11 9-14 10-27 14-20 7v1l14-1 20-5 12-4 21-9 19-10 11-8 4-7 9-10 10-13 12-20 8-14 8-21 6-26 3-27v-24l-2-17-5-23-8-22-8-17-3-4zm67 26 1 4zm-452 51 1 15 5 18 1 1h5l-3-10-8-24zm75 110 1 5-3 1-3 3v4l-2 1 7 8 9 7 15 8 30 12 16 4 19 3 13 1h13l24-3 19-4 26-9 17-9 4-4-8 1-25 6-26 4h-34l-24-3-24-6-20-7-21-10-13-7-8-6z" fill="#70A8AF"/>
<path transform="translate(358,290)" d="m0 0 2 1-5 5h-2l1 6h10l5-1-5 5-14 11-12 11-12 12-2 4 24-6 10-2 6-4-1 4h-2l-2 4-7 7v4l3 3h6l13-13 5-3 3-1-2 9-7 8-8 10-9 19-6 12-9 25-5 24-2 19v34l3 20 5 23 5 16v7l-16 3h-7l-5-4-1 2-6-2-1-8v-4-2h-2v-2l-5-1-5 7h-1l1 10 2 5v7l-2-3-4-12 1 11 5 18h6l8 15 9 14 10 13 15 16 3 2v3h-2l-1 12 1 9 4 4v2l6 2 6 5 5 3 9 6 16 8 27 11 16 4 19 3 13 1h13l24-3 19-4 26-9 17-9 6-4 4-4 11-4 2 1-3 5 9 2 3 3v2h2l1 7-2 5-8 7-5 4-1 9 3 8v5l-22 11-17 6 16-2 25-7 25-11 17-9 9-7h2l1-4 7-8 8-10 9-13 8-13 9-16 8-21 6-26 2-12 3-10v-23l5-4 1-2 7-2 9-1 2 1 1-3v20l7-1 2 1-1 10-4 12h-2l-1 9-5 16-1 4-4 9-8 15-8 13-8 11h-2l-3 6h-2l-2 4-15 16-1 3 1 7 1 1 3 1-2 6-10 9-17 12-17 10-16 8-23 9-21 6-32 5h-40l-22-3-18-4-21-6-24-10-12-6-18-11-12-9-11-9-10-9-4-3v-2l-4-2-7-8-8-9-12-17-10-16-11-21-8-21-8-27-4-20-2-20v-25l2-23 5-26 4-15 7-21 11-25 11-20 11-16 8-10 5-7-16 4-16 6-29 14-2-1 2-5 10-14 12-16 13-15 11-12 14-13 14-11zm-55 183-3 2 1 5 2 6 2-1 1-11z" fill="#905FB2"/>
<path transform="translate(718,384)" d="m0 0h3l11 19 8 16 11 28 7 26 4 23 2 22v24l-2 23-5 26-7 24-10 24-12 22-12 17-13 16-11 12-10 10-4 1 2-4h-6l1-6-1-5 10-10 7-8 2-3h2l3-6h2l2-4 7-10 6-10 9-16 3-8 3-9 4-14 1-6h2l4-18-1-4h-7l-1-17-18 2-2 4-3 2v23l-3 10-1-3 1-12v-24l-2-17-5-23-8-22-8-17-3-3 6 26 4 31 1 19-1 26-3 19-8 31-7 18-8 16-8 14-10 14-10 13-14 14-11 9-14 10-5 2-4-13 1-8 8-7 5-4 2-5v-7h-2l-4-4-8-3 1-4h-2l-17 5-5-1-4-3 2-6 14-5 2 1 1-3 12-7 5-5 14-10 10-9 5-4 7-8 10-14 8-13 7-14 7-22 3-15 1-13v-20l-2-18-6-22-7-17-9-15v-3l11 1h10l13-2 9-4 6-4 4-2 2-4 4-4 4 2 8 12 10 17 11 23 6 20-1-12-5-22-6-20-7-18-9-18v-8l1-12zm28 120 1 4z" fill="#F8D09E"/>
<path transform="translate(415,334)" d="m0 0h3l1 6-3 5-8 11-11 17-10 19-4 10-2 9-1 2 7 4 6 2 6-4 5 10v2h2l-2 5-9 12-8 13-10 24-5 19-2 13v33l3 19 6 20 8 18 8 14 9 12 8 10 8 7 11 9 19 12 17 8 15 5 13 3 29 2 20-2 21-5 16-6 14-7-2 4-11 6-1 2-5 1-11 4-1 5 4 3 10-1-2 4-21 5-18 4-22 3h-34l-24-3-24-6-20-7-21-10-13-7-10-7 1 5-2 1 1 2-5 1-1 5 5 7-4-2-10-6-5-6-1-11 2-10h2l-1-3-8-7-12-13-13-18-6-10-6-12-4-9-2-12-3-10v-6l5-4 2-3 5 2v2h2l2 6h-2l2 4 1 4 4 2 1-3 5 4 13-1 10-1 1-4 5 12 7 13-3-14-4-19-1-13-3-10-3-1 3-3 1-5v-42l2-17 5-25 6-21 5-13 11-24 9-14 10-14 12-12 2 3v-5l3 1z" fill="#7ED1B8"/>
<path transform="translate(698,178)" d="m0 0 6 1 3 5-2 7-8 10-14 19-11 15-14 19-14 20-14 18-4 6 1 4 16 15 8 7v2l4 2 17 17 8 7 22 22v31l-2 5-12 13-9 6h-36l-6-2-9-19-10-6-17-8-3-1h-7l-14 2-17-1-13-4-13-8-9-8-10-15-4-13-1-5v-12l2-1h9l5 2 2 16 5 12 9 10 10 6 13 4h17l11-3 8 1 28 13 9 6 4 5 6 12v2h19l7-1 10-9 2-5v-19l-7-7-8-7-8-8-8-7-12-12-8-7-14-14-8-7-10-10-10-8-5-5-11-4-2-2-7-3-1-6 1-12-2-2 2-11-2-1h3v-6l-10 7-8 8-8 12-5 9-4 1-29 1-1 1-12 1h-12l-2-5 1-6 23-5 28-3 6-12 2-3-12-1-14-2-32 1-15 1v-1l9-2-1-4 1-3h2v-2l-2-2 1-2 10-1h27l21 2 15 3 5-1 15-11 12-7h3l1 6v46h3l11-9 12-10 14-11 16-13 14-11 16-13 10-8 13-11zm-39 49-8 6-1 1v6h2v-2h2l6-9zm-21 19 1 3zm0 4-1 4h2zm-4 6 1 2zm-1 2v3zm-20 8-11 8v3l3 2 6 7 4 1 2-4-1-10 1-6-3 1z" fill="#F4C2B1"/>
<path transform="translate(358,290)" d="m0 0 2 1-5 5h-2l1 6h10l5-1-5 5-14 11-12 11-12 12-2 4 24-6 10-2 6-4-1 4h-2l-2 4-7 7v4l3 3h6l13-13 5-3 3-1-2 9-7 8-8 10-9 19-6 12-9 25-5 24-2 19v34l3 20 5 23 5 16v7l-16 3h-7l-5-4-1 2-6-2-1-8v-4-2h-2v-2l-5-1-5 7h-1l1 10 2 5v7l-2-3-4-12 1 11 5 18h6v4l-7-1 3 13-3-1-6-7-1-5 2-1h-3v-2l-4-2-2-5h3l-1-4-2-1v-2h-2l-2-5 2 12 5 20 8 24-1 3-7-19-7-24-4-20-2-20v-25l2-23 5-26 4-15 7-21 11-25 11-20 11-16 8-10 5-7-16 4-16 6-29 14-2-1 2-5 10-14 12-16 13-15 11-12 14-13 14-11zm-55 183-3 2 1 5 2 6 2-1 1-11z" fill="#996FCB"/>
<path transform="translate(732,556)" d="m0 0h1v20l7-1 2 1-1 10-4 12h-2l-1 9-5 16-1 4-4 9-8 15-8 13-8 11h-2l-3 6h-2l-2 4-15 16-1 3 1 7 1 1 3 1-2 6-10 9-17 12-17 10-16 8-23 9-21 6-32 5h-40l-22-3-1-2 2-1-4-2-1-5 2-5 17 1 10 1h37l3-1-4-1-5-5-1-4h-2l-3-7 10-4 7-1-3-6v-14l-1-4 4-8 12-5 12-7 5-3 4-4 11-4 2 1-3 5 9 2 3 3v2h2l1 7-2 5-8 7-5 4-1 9 3 8v5l-22 11-17 6 16-2 25-7 25-11 17-9 9-7h2l1-4 7-8 8-10 9-13 8-13 9-16 8-21 6-26 2-12 3-10v-23l5-4 1-2 7-2 9-1 2 1z" fill="#F482B0"/>
<path transform="translate(519,425)" d="m0 0 6 2 11 10 8 7 14 12 13 12 11 9 12 11 8 7 4 4v6l-11 12-13 14-5 1-8-7-10-9-8-7-14-12-15-14-4 1-14 13-11 9-15 14-8 7-6 5-6-1-14-15-7-8-3-4v-5l5-5 15-13 11-10 8-7 14-12 11-10 11-9 8-7z" fill="#F86879"/>
<path transform="translate(577,557)" d="m0 0 7 4 16 13 7 6 1 4-4 7-15 15-14 10-16 8-17 5-6 1h-31l-18-4-18-8-11-7-11-10-3-2v-2l-3-1-8-10v-6l9-8 17-13 1-1h6l14 15 10 7 11 5 8 2h23l15-5 11-7 8-7 7-9z" fill="#576BDC"/>
<path transform="translate(718,384)" d="m0 0h3l11 19 8 16 11 28 7 26 4 23 2 22v24l-2 23-5 26-7 24-10 24-12 22-12 17-13 16-11 12-10 10-4 1 2-4h-6l1-6-1-5 10-10 7-8 2-3h2l3-6h2l2-4 7-10 6-10 9-16 3-8 2-6h2l9-30 1-4h2v-10l4-23v-38l-2-3-3-15h-16l-4-2-11-24-5-6-13-4-7-7-3-9h-5l3-2 9-4 6-4 4-2 2-4 4-4 4 2 8 12 10 17 11 23 6 20-1-12-5-22-6-20-7-18-9-18v-8l1-12zm28 120 1 4z" fill="#F9DB8B"/>
<path transform="translate(322,594)" d="m0 0h8l3 1 7 12 13 17 9 10 12-3 9-2-3-9 4 2 2 4 7 8 2 7 3 1 2 4 8 7 7 4 5 2 3 3 3 6 8 7 10 4 3 1-6-7-4-5 3-6 5 2 19 10 18 6 13 3 29 2 20-2 21-5 16-6 14-7-2 4-11 6-1 2-5 1-11 4-1 5 4 3 10-1-2 4-21 5-18 4-22 3h-34l-24-3-24-6-20-7-21-10-13-7-10-7 1 5-2 1 1 2-5 1-1 5 5 7-4-2-10-6-5-6-1-11 2-10h2l-1-3-8-7-12-13-13-18-5-9 1-3h3l2-3z" fill="#7ED1B7"/>
<path transform="translate(467,231)" d="m0 0h8l2 3-1 2h-2v5 3l-2 1 8-1 33-1 25 4v1h-6l-1 6-5-1v2l-4 1v2h-3l-2 4h11l1-3h2l1-3 1 2-3 5-28 3-19 4h-4l1 11 14-1v2h-3l-1 3-3-1-25 7-24 10-17 9-13 8-18 13-7 6-5 3-6 4-11 11h-6l-3-2v-2l-2-1 3-5 7-7 1-2h2l2-6 13-11 16-12 10-7 12-7-9-1 1-4 6-5 6-4 1-1h8v-2h6v4h-7l-1 6 4-1 25-10h3l1-4-5 1-6-2v-2l-14 3-22 7-23 11-18 11-8 3h-8l-2-1v-3l-2-1 5-5 5-6 13-8 15-8 9-4h2v-2l-8-1-13-3-1-3 16-6 27-10 25-7zm14 15-2 2 1 3 6-1 1-3-1-1zm-25 5v3l5-1-2-2zm-15 1-13 4v2l13 4h3v-2l-6-2 1-2 6-3zm62 9-3 2 7 1 3-2-1-1zm-43 11 1 2h2v-2z" fill="#8CBDBC"/>
<path transform="translate(647,445)" d="m0 0 11 1h25l4 9 3 3 3 2v2l13 3 7 9 10 22 6 1h11l3 3 3 13 2-2v43l-4 23-1 10h-2l-1 8-8 24-2 2 2-11 3-12h2l4-18-1-4h-7l-1-17-18 2-2 4-3 2v23l-3 10-1-3 1-12v-24l-2-17-5-23-8-22-8-17-3-3 6 26 4 31 1 19-1 26-3 19-3 13h-1l1-9 3-17 1-11v-26l-2-15-5-5-5-3v-2h-2l-1 21-2 12h-1l1-18v-20l-2-18-6-22-7-17-9-15z" fill="#F3A1A2"/>
<path transform="translate(370,347)" d="m0 0v3l-3 4h-2v7l-4 8-2 8-8 15-10 28-5 24-2 19v34l3 20 5 23 5 16v7l-16 3h-7l-7-5-5-16-5-24-5 10-2 7-5-1v-3h2l-2-6-2-1-1-3v-14l4-25 2 1 1 7-2 6h2v3h2l5 11v-32l1-5 3-32v-7l8-18 8-16 7-12h2v-3h2v-3h2v-3h2l1-4 5-6h2l2-5 14-15z" fill="#8266B6"/>
<path transform="translate(545,708)" d="m0 0 3 1h-2l-2 8 1 2v14l2 6-16 5 2 4v3h2l2 4 4 3v2l9 1v1l-8 1h-37l-21-2-1-1-25-5-28-10-13-6 3-1 6 1h2l1-6 3-12h2l-3-3-3-2 2-1 21 4 20 2h13l24-3 19-4z" fill="#915DB1"/>
<path transform="translate(304,544)" d="m0 0 5 2v2h2l2 6h-2l2 4 1 4 4 2 1-3 5 4 13-1 10-1 1-4 5 12 7 13v-7l2 3 6 18 8 15 2-1 4 1v-2l5 1-1-5-1-3 2-1 8 14 9 12 8 10 8 7 11 9 9 6-1 4v4l8 10 2 3-5-2-11-5-9-8-3-6-5-3-7-3-7-6v-2l-3-1-2-4-3-3-2-5-5-5-4-6-3-3 2 3v3l2 1-1 2-19 6-4-2-10-11-13-18-4-7v-2h-14l-2 4-5 1-6-12-4-9-2-12-3-10v-6l5-4z" fill="#70A8AF"/>
<path transform="translate(567,241)" d="m0 0h2v6l-2 10 2 4-1 18 7 2 3 2 11 5-3 1-5-2h-6v2l-6 2-33 3-17 4-20 7-25 13-14 10-11 9-16 16-2-1-4-16v-3l11-12 11-9 13-10 19-11 5-5h3l2-4 5-2 8-1 1-1 33-1 2-5 6-10 7-9 8-8z" fill="#6A4D95"/>
<path transform="translate(732,556)" d="m0 0h1v20l7-1 2 1-1 10-4 12h-2l-1 9-5 16-1 4-4 9-8 15-8 13-8 11h-2l-3 6h-2l-2 4-15 16-11 10-16 12-2-1 2-5 7-7 7-9 9-13 8-13 9-16 8-21 6-26 2-12 3-10v-23l5-4 1-2 7-2 9-1 2 1z" fill="#905DB1"/>
<path transform="translate(698,178)" d="m0 0 6 1 3 5-2 7-8 10-14 19-11 15-14 19-14 20-13 17h-2l-1-14-1-2h-3l-4 10-2-4v-21l-6 5-2-1 1-5v-2h-2l-1-2-2-1 10-11 13-10 16-13 14-11 16-13 11-9 10-8zm-39 49-8 6-1 1v6h2v-2h2l6-9zm-21 19 1 3zm0 4-1 4h2zm-4 6 1 2zm-1 2v3z" fill="#FBF7CE"/>
<path transform="translate(358,290)" d="m0 0 2 1-5 5h-2l1 6h10l5-1-5 5-14 11-12 11-12 12-2 4 24-6 10-2 6-4-1 4h-2l-2 4-7 7v4l3 3h6l13-13 5-3 3-1-2 9-7 8-8 10-4 8-1-3 4-9 1-6 5-5-5 4-8 8-8 11h-2l-2 4-3 3-1 3h-2v3h-2v3h-2v3h-2l-2 5-5 8-5-2-9-1-1-2 8-14 14-19 7-9-16 4-16 6-29 14-2-1 2-5 10-14 12-16 13-15 11-12 14-13 14-11z" fill="#986FCA"/>
<path transform="translate(501,440)" d="m0 0 2 1-1 4 1 7-1 16v18l1 8 3 1-15 13-13 12-8 7-6 5-6-1-14-15-7-8-3-4v-5l5-5 15-13 11-10 8-7 14-12 11-10z" fill="#F132A7"/>
<path transform="translate(577,557)" d="m0 0 7 4 16 13 7 6 1 4-4 7-15 15-14 10-16 8-17 5-9 1-3-2 2-2-2-12v-3l-1-23 18-6 11-7 8-7 7-9z" fill="#70A9AF"/>
<path transform="translate(307,590)" d="m0 0 4 5 4 8 9 14 10 13 15 16 3 2v3h-2l-1 12 1 9 4 4v2l6 2 6 5 5 3 9 6 16 8 27 11 6 2 5 4v2h-2l-2 12-1 7h-7l-7-2v-2h-3v-2l-5-1-18-12-14-11-12-11-8-8-2-4-5-3-3-5-5-5-7-10-3-6-7-11-2-5-4-4-3-7v-4l4-1-1-4h-3l-2 3-5-10-5-16-2-4v-4l7 1z" fill="#7879A7"/>
<path transform="translate(512,328)" d="m0 0h9l5 2 2 16 5 12 9 10 10 6 13 4h17l11-3 8 1 28 13 9 6 4 5 6 12v2l14 1v1l5 1-3 10-1 2h-20l-6-2-9-19-10-6-17-8-3-1h-7l-14 2-17-1-13-4-13-8-9-8-10-15-4-13-1-5v-12z" fill="#EA73B6"/>
<path transform="translate(591,684)" d="m0 0 2 1-3 5 9 2 3 3v2h2l1 7-2 5-8 7-5 4-1 9 3 8v5l-22 11-17 6 3 2-1 1-10-1-4-1-5-5-1-4h-2l-3-7 10-4 7-1-3-6v-14l-1-4 4-8 12-5 12-7 5-3 4-4z" fill="#EF73B6"/>
<path transform="translate(674,525)" d="m0 0h2l2 3 7 4 2 3 2 15v26l-1 11-4 21-1 8h-2l-3 12-6 17-8 16-5 8-3 2-4-1-4-5 1-7 8-16 3-7v-8l-17-1 3-11 6-9 8-16 7-22 2-9 2-5 2-23z" fill="#FADE88"/>
<path transform="translate(596,285)" d="m0 0 7 3v2l5 2 5 7h8l2 2 5 2 15 14 8 7v2l4 2 17 17 8 7 22 22v31l-2 5-12 13-9 6h-16l-1-2h2v-5l2-4-5-1 1-2 12-2 10-9 2-5v-19l-7-7-8-7-8-8-8-7-12-12-8-7-14-14-8-7-10-10-5-7-4-2-2-4z" fill="#F3CCA2"/>
<path transform="translate(376,647)" d="m0 0h13l12 5 5 1 10 8 8 7 7 4 3 3 10 4 3 1-6-7-4-5 3-6 5 2 19 10 18 6 13 3 29 2 20-2 21-5 16-6 14-7-2 4-11 6-1 2-5 1-11 4-1 5 4 3 10-1-2 4-21 5-15 3-12 1-22 2h-19l-27-3-23-5-2-1 1-2 15 4 18 3h9l-3-3-18-7v-2l-10-3-10-5-11-4-6-4-1-5-7-2-3-2v-2l-7-1-1 3-3 1-12-8-10-8z" fill="#8BC1BB"/>
<path transform="translate(690,493)" d="m0 0 5 5h11l13 1 4 4 4 6 5 18 1 5 5 2v2l6 1 3 1 1 5v11l-4 23-1 10h-2l-1 8-8 24-2 2 2-11 3-12h2l4-18-1-4h-7l-1-17-18 2-2 4-3 2v23l-3 10-1-3 1-12v-24l-2-17-5-23-8-22z" fill="#EF72B7"/>
<path transform="translate(370,347)" d="m0 0v3l-3 4h-2v7l-4 8-2 8-8 15-10 28-5 24-2 6-1 7-1 28-1-3-2-1-1-3 1-1h-13l-5 4-4 1 1-20 2-18v-7l8-18 8-16 7-12h2v-3h2v-3h2v-3h2l1-4 5-6h2l2-5 14-15z" fill="#7552A3"/>
<path transform="translate(706,426)" d="m0 0 4 2 8 12 10 17 11 23 6 20-1-17 2 4 3 22v46l-1 11h-2v10l-1 6h-2l1-11 3-17v-38l-2-3-3-15h-16l-4-2-11-24-5-6-13-4-7-7-3-9h-5l3-2 9-4 6-4 4-2 2-4zm40 78 1 4z" fill="#F9D09E"/>
<path transform="translate(415,334)" d="m0 0h3l1 6-3 5-8 11-11 17-10 19-8 19-6 21-1 6h-2l-1 8h-2l-1 9-1 7-5 19-3 12-2 7h-3v-31l3-19 3-10 2-10 1-10 6-17 12-26 9-14 10-14 12-12 2 3v-5l3 1z" fill="#79E2B4"/>
<path transform="translate(545,708)" d="m0 0 3 1h-2l-2 8 1 2v14l2 6-16 5 2 4v3h2l2 4 4 3v2l9 1v1l-8 1h-37l-21-2 4-2h8l-1-6 2-5 9-1-3-11v-7l-1-2 2-6-8 1h-12v-1l24-3 19-4z" fill="#B966BA"/>
<path transform="translate(757,582)" d="m0 0h1l-1 9-7 24-10 24-12 22-12 17-13 16-11 12-10 10-4 1 2-4h-6l1-6-1-5 10-10 7-8 2-3h2l3-6h2l2-4 7-10 6-10 9-16 3-8 2-6h2l9-30 2-4v21l1 10h3l6-17 4-17z" fill="#F6C2AF"/>
<path transform="translate(486,578)" d="m0 0 15 7 8 2 20 1 1 1 1 22v3l1 9 1 3 2 2-2 2h-28l-18-4-7-3 3-1 6 1v-17l-1-11v-13z" fill="#3C89D1"/>
<path transform="translate(364,641)" d="m0 0h5l14 12 15 10h3l1-4 5 1 2 1v2l6 2 4 2 2 5 9 5 14 5 8 4 5 2v2l10 3 11 4 1 4h-10l-22-4-22-6-17-7-8-3-19-11-8-4-5-5-4-2-4-5-5-4v-5l5-3z" fill="#79E2B4"/>
<path transform="translate(623,664)" d="m0 0 6 5 2 1v2l5 1-1 4-9 12h-2l-2 4-5 5h-2v2l-4 4-1 2 4 2 5 4 5 3 4-2-6 7-11 9-14 10-5 2-4-13 1-8 8-7 5-4 2-5v-7h-2l-4-4-8-3 1-4h-2l-17 5-5-1-1-4 8-1 5-1 7-2 12-5 2-3h2l2-4 1-4 7 2v2z" fill="#F297AA"/>
<path transform="translate(519,425)" d="m0 0 6 2 11 10 3 2-1 3h-4l-1 5v30l-1 3v10l-4-1-6-6-4 1-11 10h-4l-2-8v-18l1-17-1-8 2-5 12-11z" fill="#F94C86"/>
<path transform="translate(504,358)" d="m0 0h11l8 11 2 4-17 1-25 5-17 6-17 8-15 10-9 7-5-1-3-5v-2l-2-1v-4l13-10 15-9 16-8 24-8 13-3z" fill="#9292C3"/>
<path transform="translate(512,243)" d="m0 0 26 4v1h-6l-1 6-5-1v2l-4 1v2h-3l-2 4h11l1-3h2l1-3 1 2-3 5-28 3-29 6-7 1 2-8-12 2h-10l-5-5h7l-2-4h-2v-3l4-2 1-3 13-3 9-1 1-1 8-1zm-31 3-2 2 1 3 6-1 1-3-1-1zm-25 5v3l5-1-2-2zm47 10-3 2 7 1 3-2-1-1z" fill="#9191C2"/>
<path transform="translate(505,278)" d="m0 0h21l-5 4-11 1-8 1-17 7 2 7v10l4 1-17 9-14 10-11 9-16 16-2-1-4-16v-3l11-12 11-9 13-10 19-11 5-5h3l2-4 5-2 8-1z" fill="#787AA7"/>
<path transform="translate(355,686)" d="m0 0h8l14 8 6 2 17 8 23 9 6 2 5 4v2h-2l-2 12-1 7h-7l-7-2v-2h-3v-2l-5-1-18-12-14-11-12-11-8-8-1-3z" fill="#7554A3"/>
<path transform="translate(363,332)" d="m0 0 1 2-1 2h-2l-2 4-7 7v4l3 3h6l13-13 5-3 3-1-2 9-7 8-8 10-4 8-1-3 4-9 1-6 5-5-5 4-8 8-8 11h-2l-2 4-3 3-1 3h-2v3h-2v3h-2v3h-2l-2 5-5 8-5-2-9-1-1-2 8-14 14-19 7-9h-5l1-7-1-3-10-2 4-2 19-5 10-2z" fill="#9292C3"/>
<path transform="translate(594,665)" d="m0 0v3l-12 7-1 2-5 1-11 4-1 5 4 3 10-1-2 4-21 5-15 3-24 2h-13v-1l7-1-22-5-4-3 4-8-2-2 38 2 20-2 21-5 16-6z" fill="#CCAAB8"/>
<path transform="translate(629,233)" d="m0 0h2l-1 4 1 3 5 2h3l2 3 2 8h8l6-3 3-5h2l2-4 3-3 2 1-13 18-12 17-13 17h-2l-1-14-1-2h-3l-4 10-2-4v-21l-6 5-2-1 1-5v-2h-2l-1-2-2-1 10-11zm9 13 1 3zm0 4-1 4h2zm-4 6 1 2zm-1 2v3z" fill="#FCFBFB"/>
<path transform="translate(425,241)" d="m0 0 3 1-5 3-5 2-3 1v2l-5 2-5 9 1 7 3 1 3 3h6l2 2-5 3-25 12-18 11-8 3h-8l-2-1v-3l-2-1 5-5 5-6 13-8 15-8 9-4h2v-2l-8-1-13-3-1-3 16-6 27-10z" fill="#72A6B0"/>
<path transform="translate(466,274)" d="m0 0h5l1 4-4 9-4 2-2 2-24 10-17 9-13 8-5 4-10 1-3-2 1-7 4-5h2l2-4 5-2 9-6 6-2 1-2 16-8 11-5 9-3 9-2z" fill="#8BC0BB"/>
<path transform="translate(685,473)" d="m0 0 12 4 3 9h2l2 5 13 2 4 2 7 2h12l3 3 3 13 2-2v32h-1v-5l-9-2v-2l-5-2-3-7-4-16-3-4v-2l-3-1-2-2-12-1h-12l-6-6-7-14 1-5z" fill="#F496AA"/>
<path transform="translate(478,760)" d="m0 0 17 1 10 1h45v2l7 6v2h7v2l-8 2-14 2h-40l-22-3-1-2 2-1-4-2-1-5z" fill="#EF72B7"/>
<path transform="translate(591,684)" d="m0 0 2 1-3 5 9 2 3 3v2h2l1 7-2 5-8 7-5 4-1 9 3 8v5l-15 7v-2l-4 1-3-3-2-8-2-5 10-6 7-4 1-3-7-8-4-9-2-1 1-3 9-5v-3h2v-3z" fill="#F681B0"/>
<path transform="translate(404,734)" d="m0 0h8v2h3v2l9 3 14 6 24 8 21 4-4 3-2 4 1 4 4 2-3 2-10-1-28-8-24-10-8-4-4-7v-2h-2v-6z" fill="#B967BA"/>
<path transform="translate(600,378)" d="m0 0 6 3v2l5 1 3 3 9 3 9 1 6 4 4 5 6 12v2l14 1v1l5 1-3 10-1 2h-20l-6-2-9-19-10-6-8-4-3-3-4-3-9-3 1-7z" fill="#F091AC"/>
<path transform="translate(625,642)" d="m0 0v3l-1 4 10 1h6l5 5v8l-8 13-1-3-5-1v-2l-5-2-3-3-9 5-5-2-3-1-2 4-7 8-11 4-7 2-5 1-7 1v2l-4-2 2-6 14-5 2 1 1-3 12-7 5-5 14-10 10-9z" fill="#F8C3AF"/>
<path transform="translate(429,276)" d="m0 0h6v4h-7l-1 6 4-1 5-1v2l-27 14-6 5-5 2-6 7-2 7 7 1 4 1-12 9-6 5-5 3-6 4-11 11h-6l-3-2v-2l-2-1 3-5 7-7 1-2h2l2-6 13-11 16-12 10-7 12-7-9-1 1-4 6-5 6-4 1-1h8z" fill="#71A7B0"/>
<path transform="translate(674,470)" d="m0 0 1 3h2l3 10 3 9 4 19 3 25 1 19-1 26-3 19-3 13h-1l1-9 3-17 1-11v-26l-2-15-5-5-5-3v-2h-2l-1 21-2 12h-1l1-18v-20l-2-18-6-22-1-2v-6l1 2 5-1 6 1z" fill="#F6C3AE"/>
<path transform="translate(732,556)" d="m0 0h1v20l7-1 2 1-1 10-4 12-5 1-2-1v-9l-11 1v2l-7 3h-3l-1 5 1 4h-2l1 3-3 7-2 4 1-12 2-8 2-9v-22l5-4 1-2 7-2 9-1 2 1z" fill="#BA66B9"/>
<path transform="translate(538,247)" d="m0 0 1 3-1 2h-2v6l4-1 8 2-2 4-6 11-2 3-4 1-29 1-1 1-12 1h-12l-2-5 1-6 23-5 28-3 6-12z" fill="#CEAAB7"/>
<path transform="translate(690,493)" d="m0 0 5 5h11l13 1 4 4 4 6 5 18 1 5 5 2v2l6 1 3 1 1 5v11l-2 11-2-4v-3l-5-2-3-4 1-2-3-1-4-20h-2l-2-7-14-2-7-4h-5l-2 3-5-15-3-7z" fill="#F682B0"/>
<path transform="translate(347,559)" d="m0 0 2 3 12 24v7l-1 1h-12l-4 2-8-1-2-1v-2l-3-1v-2h-2l-7-14-4-10 1-4 5 4 13-1 10-1z" fill="#7587AB"/>
<path transform="translate(757,582)" d="m0 0h1l-1 9-7 24-10 24-3 5-3 3-5 9-5 6-7 1v2l-4 2-3-1 1-4 3-7 1-4 9-16 3-8 2-6h2l9-30 2-4v21l1 10h3l6-17 4-17z" fill="#F8CF9F"/>
<path transform="translate(352,537)" d="m0 0h2l1 13 4 4 3 1h7l2-2 3 16 7 21 5 11 2 12-6-2v2l-6 1-8-14-6-16-1-7h-2l-5-21-2-18z" fill="#89BEBB"/>
<path transform="translate(671,365)" d="m0 0h4l7 8 5 4 3 6v3l4-1v2l5-1v-11l-2-5 5 4v31l-2 5-12 13-9 6h-16l-1-2h2v-5l2-4-5-1 1-2 12-2 10-9 2-5v-19l-7-7-8-7z" fill="#F8D09E"/>
<path transform="translate(567,241)" d="m0 0h2v6l-2 10 2 4-1 18 7 2 3 2 11 5-3 1-5-2h-6v2l-6 2-24 2h-8v-1l25-3-2-4-9-5-5-1-4-5v-6l10-14 9-9z" fill="#915DB1"/>
<path transform="translate(698,655)" d="m0 0 8 1 1 5-2 4h-2v6l-3 4h-2l-3 6h-2l-2 4-15 16-11 10-16 12-2-1 2-5 7-7 7-9 9-13 8-13 6-10 5-5 4-1 1-3z" fill="#6C4E96"/>
<path transform="translate(593,375)" d="m0 0 8 1 28 13 1 2h-7l-10-4v-2l-7-2v-2l-3-1h-4l-3 2-1 6 5 2 4 2 6 4-2 1-10-4h-7l-14 2-17-1-13-4-13-8 1-2 2-3 5 1 3 3 8 1 2-2h6l3-1h17l9-3z" fill="#F381B0"/>
<path transform="translate(358,290)" d="m0 0 2 1-5 5h-2l1 6h10l5-1-5 5-14 11-12 11-17 17-1-3-6-4v-2l-4-1 6-7 7-8 16-15 14-11z" fill="#9293C3"/>
<path transform="translate(673,703)" d="m0 0 2 1 1 7 1 1 3 1-2 6-10 9-17 12-17 10-4-5-1-4v-2l-3-2 4-2 4-4 13-9 5-2 16-13z" fill="#F1A2A4"/>
<path transform="translate(329,681)" d="m0 0 5 5 7 9 17 17h4l-1-7 4-2 5 2 16 13 15 10 7 5-4 3-1 6h2l4 6v2l-5-2-14-8-14-10-13-11-8-7-5-4v-2l-4-2-7-8-8-9-2-3z" fill="#996DCA"/>
<path transform="translate(623,664)" d="m0 0 6 5 2 1v2l5 1-1 4-9 12h-2l-2 4-5 5h-2l-1 2-3-9-7-10-4-1-14 7-14 4-5-1-1-4 8-1 5-1 7-2 12-5 2-3h2l2-4 1-4 7 2v2z" fill="#F5A1A2"/>
<path transform="translate(381,403)" d="m0 0 1 4-2 6 7 4 6 2 6-4 5 10v2h2l-2 5-7 9-7-1-5-3h-2l-1 5-3 3-2 4-6 8-1 2h-2l1-5h2l-1-4v-7l4-18 5-17z" fill="#8BC2BB"/>
<path transform="translate(429,715)" d="m0 0 22 4 6 3-2 11 1 6 2 3v4l-8 2h-12l-21-9 3-1 6 1h2l1-6 3-12h2l-3-3-3-2z" fill="#8365B6"/>
<path transform="translate(440,662)" d="m0 0 5 2 19 10 18 6 13 3v1h-6l-2 5-2 4 6 3 19 4 1 2h-7l-18-5-18-6-14-6-8-6-9-11 2-4z" fill="#9293C3"/>
<path transform="translate(487,284)" d="m0 0h2v2l-5 2v2l-17 10-13 9-11 9-10 9-6 7-6 5-3 3v-8h-3v2l-2 1-1 3-2-1-5 4-5 6v-3l6-8h2l2-4 13-13 16-12 24-15 14-7z" fill="#7CB6B5"/>
<path transform="translate(355,686)" d="m0 0h8l14 8 6 2v3l5 1 6 4 3 5 3 8 4 8-1 3-5-1-13-9-11-9-10-9-9-9-1-3z" fill="#694B94"/>
<path transform="translate(471,246)" d="m0 0h4v3l2 1-1 2 5 2v12l18-1-3 2-26 6h-4l2-8-12 2h-10l-5-5h7l-2-4h-2v-3l4-2 1-3 13-3zm-15 5v3l5-1-2-2z" fill="#787BA6"/>
<path transform="translate(653,333)" d="m0 0 2 1 1 8 10 1 20 18 5 5 6 2 3 7v11l-1 1h-5v-2l-4 1-4-9-8-7-3-3v-2h-4l-3-5-5-6-5-3-1-4-4-1-2-6-3-1 2-5z" fill="#FADE88"/>
<path transform="translate(415,334)" d="m0 0h3l1 6-3 5-8 11-11 17-9 17-2-2 1-14-4 2-6 12-1 9-3 1-3 3-1-2 9-20 10-16 10-14 12-12 2 3v-5l3 1z" fill="#7DCEB7"/>
<path transform="translate(485,229)" d="m0 0h27l7 3 1 6-3 3h-2l-1 3-34 1-15 1v-1l9-2-1-4 1-3h2v-2l-2-2 1-2z" fill="#F7F6F8"/>
<path transform="translate(706,426)" d="m0 0 4 2 12 18 1 11-5 1h-12l-6-5-7-10 1-5 4-4h2l2-4z" fill="#F9DC8B"/>
<path transform="translate(633,679)" d="m0 0 1 2v6l4 3h5l5-4h2l-2 5-9 11-7 8-3 3-6 3v-2l-6-2-7-6 2-5 3-1v-2l8-7 1-2h2l2-4z" fill="#F6C2AF"/>
<path transform="translate(380,620)" d="m0 0 4 2 2 4 7 8 2 7 3 1 2 4 8 7 7 4 5 2 3 3 3 7-4-2-7-6-10-8-5-1-11-4h-11l-7-4-8-8 3-3 14-4h3l-2-6z" fill="#7DB8B6"/>
<path transform="translate(524,279)" d="m0 0 1 3-4 3h-2l-2 4-4 3-1 6 4 1-19 7-4 2h-6l-1-10v-6l-2-1 10-5 12-4h10l7-2z" fill="#7553A3"/>
<path transform="translate(733,472)" d="m0 0 3 1 6 16 3 11-1-17 2 4 3 22v46l-1 11h-2v10l-1 6h-2l1-11 3-17v-38l-2-3-3-15h-16l-4-2-6-14 1-2 7 2h9l1-2v-4zm13 32 1 4z" fill="#F8C5AD"/>
<path transform="translate(307,520)" d="m0 0h1l6 29 4 12v3l-6-2-1-8v-4-2h-2v-2l-5-1-5 7h-1l1 10 2 5v7l-2-3-4-12-2 1-1-13v-17l2-3h2l1 7h-2v3l5 1v-7l3-3z" fill="#9393C4"/>
<path transform="translate(496,266)" d="m0 0h15l3 3v2h2v6l-11 2-1 1-12 1h-12l-2-5 1-6z" fill="#F7C3AF"/>
<path transform="translate(425,241)" d="m0 0 3 1-5 3-5 2-3 1v2l-5 2-5 9 1 7 3 1 3 3h6l2 2-5 3-4 1-8-1-2-8 1-4-19-3-4-2v-2l16-6 27-10z" fill="#7DB5B6"/>
<path transform="translate(370,347)" d="m0 0v3l-3 4h-2v7l-4 8-2 8-8 15-5 2v-2l-4-1v-2l-6 1 1-5h2v-3h2l1-4 5-6h2l2-5 14-15z" fill="#6B4F97"/>
<path transform="translate(671,365)" d="m0 0h4l7 8 5 4 1 2v21l-3 6-4 5 4 2 3 2-2 2 9-3-2 4-9 8-5 3h-16l-1-2h2v-5l2-4-5-1 1-2 12-2 10-9 2-5v-19l-7-7-8-7z" fill="#F7C2AF"/>
<path transform="translate(716,621)" d="m0 0 5 1 1 7-1 6h-2l1 4-3 6-3 2-6 1-1-3-7-1-1-5 2-4v-5l1-1 1-7h11z" fill="#8364B6"/>
<path transform="translate(456,561)" d="m0 0 2 1-5 5h-2v6l-1 3v10l-1 2v4h2l1 2v8l1 3h2v2l4 2 3 2-1 2-10-8-7-6v-2l-3-1-8-10v-6l9-8z" fill="#8267B6"/>
<path transform="translate(504,358)" d="m0 0h11l8 11 2 4-17 1-22 4v-2l5-2 3-7 1-5-4-1v-1z" fill="#9062B2"/>
<path transform="translate(350,651)" d="m0 0 4 1 10 8 6 4v6l-2 1 1 2-5 1-1 5 5 7-4-2-10-6-5-6-1-11z" fill="#9393C4"/>
<path transform="translate(673,498)" d="m0 0 9 2 4 12 3 29v9h-1l-2-15-5-5-5-3v-2h-2v6h-1l-1-13v-19z" fill="#F9D19E"/>
<path transform="translate(724,496)" d="m0 0 5 1h11l3 3 3 13 2-2v32h-1l-1-10-4-9-4-6-6-5-2-5h-2v-2h-2l-3-6z" fill="#F4A1A2"/>
<path transform="translate(512,243)" d="m0 0 18 3v2l-9 1-5 3-1 3-2 1h-7l-1 3h-12l-5-5 2-5 4-2-17-1 3-2z" fill="#7A7BA7"/>
<path transform="translate(487,361)" d="m0 0 8 1-1 7-2 6-6 1v2l-6 2-8 1v-2l-5-1-3-2v-6l6-2v-2z" fill="#C9A7B7"/>
<path transform="translate(578,306)" d="m0 0 6 1 13 7 9 8 4 7v3l-11-2-11-3-5-5-4-8z" fill="#E3C6A9"/>
<path transform="translate(335,388)" d="m0 0 7 1v2l5 2 3-1-1 6-8 22-2 4v-8l-7-6-1-2h-5l-1-3 8-14h2z" fill="#7556A3"/>
<path transform="translate(445,315)" d="m0 0 1 4-2 14 1 4 3 1-15 15-2-1-4-16v-3l11-12z" fill="#7687AC"/>
<path transform="translate(389,723)" d="m0 0 4 2h3l11 7 1 2-4 2-1 6h2l4 6v2l-5-2-14-8-14-10-1-3h6l3-3z" fill="#925FB3"/>
<path transform="translate(698,655)" d="m0 0 8 1 1 5-2 4h-2v6l-3 4h-2l-2 4-3-2-4 1-2-1-1-3-3-1-2 5-10 16-5 6v-3l14-22 6-10 5-5 4-1 1-3z" fill="#7553A3"/>
<path transform="translate(459,265)" d="m0 0h9v5l-2 3 13-3 1 11 14-1v2h-3l-1 3-3-1-21 6-3-1 1-2h4l1-5 2-6v-2l-13 4-8 2-14 5v-2l20-8h3l1-4-5 1-6-2v-2h-7l4-2h10zm1 7 1 2h2v-2z" fill="#9493C3"/>
<path transform="translate(702,625)" d="m0 0 1 4-1 1v6l-2 3 1 4 6 2 2 2 6-2 4-2-2 7-10 15-3 4h-2l1-4h2l1-8-8-1-3 3-5 3-2 3-2-1 6-12 6-18 2-8z" fill="#8F60B1"/>
<path transform="translate(414,398)" d="m0 0 3 4 4 7h3l-1 3-8 7-8 9-3-1-6-11-1-4 1 2h2l2-4z" fill="#7DB6B6"/>
<path transform="translate(429,715)" d="m0 0 16 3 1 3-4 1 1 7 4 8-1 2-11 3-3 3-6-2-9-4 3-1 6 1h2l1-6 3-12h2l-3-3-3-2z" fill="#905EB1"/>
<path transform="translate(358,653)" d="m0 0 4 2 2 4 4 1 8 7 16 8 12 7 16 6 15 5v2l25 5 27 3h19l29-3h5l-3 2-22 3h-34l-24-3-24-6-20-7-21-10-13-7-8-6-9-7-5-5z" fill="#829EB9"/>
<path transform="translate(487,284)" d="m0 0h2v2l-5 2v2l-17 10-13 9-11 9-3 2v-6l-2-1 1-4 24-15 14-7z" fill="#72A5AF"/>
<path transform="translate(600,378)" d="m0 0 6 3v2l5 1 3 3 9 3 9 1v3l-8 3h-5v2l-5 1-4-2-3-3-4-3-9-3 1-7z" fill="#F495AA"/>
<path transform="translate(305,454)" d="m0 0 3 3-1 24v35l-6-12v-2h-2v-3h-2v-5l1-5-1-8 4-16 3-10zm-2 19-3 2 1 5 2 6 2-1 1-11z" fill="#9694C3"/>
<path transform="translate(600,679)" d="m0 0 5 2 7 10 2 4v5l-7 7-3-1v-9h-2l-4-4-8-3 1-4 1-3z" fill="#F596A9"/>
<path transform="translate(322,594)" d="m0 0h8l3 1 5 10-3 3-7 2-1 2h-2v2h-2l-1 2-9-15 1-3h3l2-3z" fill="#7CB7B5"/>
<path transform="translate(632,392)" d="m0 0 5 2 5 6 3 6v4h-16l-5-5-8-4 1-2h2v-2l9-2 4-1z" fill="#EDA0A5"/>
<path transform="translate(449,682)" d="m0 0 30 12 23 6 4 4h-19l-27-3-23-5-2-1 1-2 15 4 18 3h9l-3-3-18-7v-2l-4-2z" fill="#7ED0B7"/>
<path transform="translate(554,266)" d="m0 0 1 2h4l1 10 7-1 1-2v4l7 2 3 2 11 5-3 1-5-2h-6v2l-6 2-24 2h-8v-1l26-3 4-4-4-3-18-9v-6l1 3 7-3z" fill="#7B7AA9"/>
<path transform="translate(304,544)" d="m0 0 5 2v2h2l2 6h-2l2 4 1 5-1 2-5 2-4 4-3-1-4-13v-6l5-4z" fill="#7587AB"/>
<path transform="translate(337,605)" d="m0 0h2l9 13-1 2-13 3-3 2v-2h-4l-4-6v-3h2v-2h2l1-3 9-2z" fill="#8BC2BB"/>
<path transform="translate(645,723)" d="m0 0 2 1-3 3v7l1 6h3v2l-14 8-4-5-1-4v-2l-3-2 4-2 4-4z" fill="#EF94AB"/>
<path transform="translate(690,440)" d="m0 0 2 1-2 3 5 5 12 14 1 4-15-5-7-7-3-9h-5l3-2z" fill="#F7C3AF"/>
<path transform="translate(562,247)" d="m0 0 6 1-1 9 2 4-1 12-2-1-1 4-4-1-2-12-2-3-2-1-1-4 6-7z" fill="#938FC1"/>
<path transform="translate(324,407)" d="m0 0h7l4 5 5 4-1 5-21 2-2 4-1-2 8-16z" fill="#694B94"/>
<path transform="translate(333,670)" d="m0 0 6 2 4 5 3 2 3 5 3 3-1 4h-2v2l-4 1-6-7h-3l-1-3-2-1v-6h-2l1-5z" fill="#996DCB"/>
<path transform="translate(402,659)" d="m0 0 5 1 2 1v2l6 2 4 2 2 5 9 5 14 5 5 4-10-2-20-8-21-11 1-2h2z" fill="#7ED3B8"/>
<path transform="translate(724,598)" d="m0 0h8l3 1-1 8-5 16-1 4-1 2h-2l2-8 2-6-2-1-3-2-2-1-4-3-1-3-2-2h5v-3z" fill="#996ECB"/>
<path transform="translate(415,334)" d="m0 0h3l1 6-3 5-8 11-3 3-4-4-3-2 2-5 10-11 2 3v-5l3 1z" fill="#8BC1BB"/>
<path transform="translate(429,276)" d="m0 0h6v4h-7l-1 6-1 3-9 4-10-1 1-4 6-5 6-4 1-1h8z" fill="#9393C4"/>
<path transform="translate(381,403)" d="m0 0 1 4-2 6 7 4 6 2 2 1-6 7h-2v2h-6l-6-3 1-8z" fill="#7DB8B6"/>
<path transform="translate(654,415)" d="m0 0h8v1l5 1-3 10-1 2h-18l3-3h2l-1-3 2-5-1-2z" fill="#EEA2A5"/>
<path transform="translate(617,259)" d="m0 0 2 1v26l-4 5-5-2-5-5v-2l-5-1-3-3 1-4h2l1-2v6l4-1 3 5 4 4h3l1-6-1-7 1-5h-4l-4 3-3-1 5-5z" fill="#CEACB7"/>
<path transform="translate(496,266)" d="m0 0h15l3 3v2h2v6l-11 2-3-1 7-3-1-2h-16l-3-2-5-1 3-2z" fill="#FEFEFE"/>
<path transform="translate(359,427)" d="m0 0 2 3-3 15-2 5-3 19-1 10v24l1 18v15l-2-2-2-6-3-1 3-3 1-5v-42l2-17 5-25z" fill="#78A3B4"/>
<path transform="translate(609,704)" d="m0 0 1 2 4 2 5 4 5 3 4-2-6 7-4 2v-2l-6-1-7-5-1-5z" fill="#F1A2A3"/>
<path transform="translate(355,686)" d="m0 0h8l14 8 6 2v1l-10 2-2 1-4-3-7-1-6-7z" fill="#7553A3"/>
<path transform="translate(414,398)" d="m0 0 3 4 4 7h3l-1 3-7 6-4-2-5-6v-5z" fill="#70A9AF"/>
<path transform="translate(459,265)" d="m0 0h9v5l-3 6-9 2-9 3-11 4v-2l20-8h3l1-4-5 1-6-2v-2h-7l4-2h10zm1 7 1 2h2v-2z" fill="#9292C3"/>
<path transform="translate(380,337)" d="m0 0h2l-2 9-7 8-8 10-4 8-1-3 4-9 1-6 5-5 4-8 5-3z" fill="#7A7EA9"/>
<path transform="translate(382,600)" d="m0 0 4 1 2 12-6-2v2l-6 1-6-10 1-3 8 2z" fill="#7CB7B5"/>
<path transform="translate(399,305)" d="m0 0h2l-1 11 3 1 6-1-5 5-7 2-5-1-2-1 1-7 4-5h2z" fill="#7CB6B5"/>
<path transform="translate(370,347)" d="m0 0v3l-3 4h-2v7l-4 8-9 2h-3l4-6 11-12z" fill="#7553A3"/>
<path transform="translate(633,247)" d="m0 0h2l-1 7-1 6 4-2-2 5-5 6-2 4h-1v-21z" fill="#CFACB7"/>
<path transform="translate(579,217)" d="m0 0h3l1 5-1 15-5-2-3-12 2-3h2z" fill="#F9CF9F"/>
<path transform="translate(433,284)" d="m0 0h3v2l-27 14-6 5-5 2-1 2-5 2-4 3-2-1 8-6 10-7 16-9z" fill="#7C90B1"/>
<path transform="translate(681,616)" d="m0 0 1 4-5 17-8 19-8 14-1-4 8-15 5-12z" fill="#F9C9A8"/>
<path transform="translate(553,255)" d="m0 0 3 2 1 2 2 2 2 10v4l4 1v-8l2 3v6l-7 1-2-7v-5l-4-1-3 1-2-5 3-3z" fill="#F072B7"/>
<path transform="translate(449,682)" d="m0 0 30 12 10 3v1l-14-1-18-7v-2l-4-2z" fill="#84C9B9"/>
<path transform="translate(357,566)" d="m0 0h4l1 4h2l3 9-2 3-1 5-2-3-1-7h-2l-2-7z" fill="#7BB6B5"/>
<path transform="translate(302,520)" d="m0 0 3 3-2 7-2 2-1 6-5-1v-3h2l-1-6 3-6z" fill="#7587AB"/>
<path transform="translate(505,278)" d="m0 0h21l-5 4-11 1-7-2z" fill="#946CB2"/>
<path transform="translate(368,401)" d="m0 0 2 2-1 5-1 4 2 2-3 3h-2l-2 8-3 1 3-12z" fill="#7CC4B6"/>
<path transform="translate(398,251)" d="m0 0 3 1-4 3-8 3-1 3 8 2-3 1-13-3-1-3 16-6z" fill="#749BAE"/>
<path transform="translate(329,681)" d="m0 0 5 5 7 9 19 19h-3l-7-6v-2l-4-2-7-8-8-9-2-3z" fill="#9971CB"/>
<path transform="translate(594,665)" d="m0 0v3l-12 7-1 2-5 1-9 2 1-3 13-5z" fill="#C7A8B8"/>
<path transform="translate(657,447)" d="m0 0h16l-2 3 1 3-5 1-9-3 1-3z" fill="#F57EB1"/>
<path transform="translate(309,438)" d="m0 0 2 1-1 14-2 23h-1v-20l1-5h-3l3-10z" fill="#8365B7"/>
<path transform="translate(558,229)" d="m0 0 2 1-7 6-5 1-16-3-9-2-4-2 14 1 15 3 5-1z" fill="#BAA1B9"/>
<path transform="translate(427,318)" d="m0 0h2v2l-9 7-7 7-1 6-2-1-5 4-5 6v-3l6-8h2l2-4 13-13z" fill="#7AA1B4"/>
<path transform="translate(487,284)" d="m0 0h2v2l-5 2v2l-10 6-3-1v-4l9-3v-2z" fill="#9292C3"/>
<path transform="translate(459,249)" d="m0 0h6v3l2 1-7 4-5-1-3-5zm-3 2v3l5-1-2-2z" fill="#9393C4"/>
<path transform="translate(380,376)" d="m0 0 1 4-5 11v6l-3 1-3 3-1-2 9-20z" fill="#7AC2B5"/>
<path transform="translate(572,283)" d="m0 0 9 1 8 4-3 1-5-2h-6v2l-6 2h-5l3-2 4-4z" fill="#9C90BE"/>
<path transform="translate(445,250)" d="m0 0h4l-1 4-4 1v3h2l3 5h-5v-3l-7-2 2-3 5-2-2-2z" fill="#9393C4"/>
<path transform="translate(359,427)" d="m0 0 2 3-3 15-2 5-2 15h-1v-11z" fill="#7ABEB4"/>
<path transform="translate(425,391)" d="m0 0 2 3 1 4-1 3h-5l-4-3 1-4z" fill="#70A9AF"/>
<path transform="translate(405,683)" d="m0 0 5 1 15 6 10 3-1 2-16-4-7-3v-2l-6-2z" fill="#7EC0B7"/>
<path transform="translate(363,332)" d="m0 0 1 2-1 2h-2l-2 4-3 3h-2v-2l-6 1v-2l-2-1 12-3z" fill="#8482B8"/>
<path transform="translate(611,382)" d="m0 0 5 1 14 7-4 1-4-1-9-3v-2h-2z" fill="#ED7DB3"/>
<path transform="translate(488,361)" d="m0 0 7 1-1 7-7-1-3-2v-2l3-1z" fill="#EC71B7"/>
<path transform="translate(718,384)" d="m0 0h3l7 12h-3v-3l-4-1-2 8h-1z" fill="#BEA8AD"/>
<path transform="translate(380,337)" d="m0 0h2l-2 9-7 8-5 6v-3l8-10 1-5 2-4z" fill="#9393C4"/>
<path transform="translate(626,307)" d="m0 0 3 1 4 6-4 2v-2h-6l-4-3z" fill="#FADE88"/>
<path transform="translate(744,483)" d="m0 0 2 4 2 12v12l-1 5-2-3-1-9h2l-2-16zm2 21 1 4z" fill="#F9C5AC"/>
<path transform="translate(681,673)" d="m0 0h2l-2 5-10 16-5 6v-3l14-22z" fill="#8771B0"/>
<path transform="translate(459,272)" d="m0 0 3 3v2l-12 3-14 5v-2l20-8h3z" fill="#8B8EBC"/>
<path transform="translate(697,370)" d="m0 0 5 4v31l-2 5-1-2 1-6v-26l-3-4z" fill="#F5C3AC"/>
<path transform="translate(707,595)" d="m0 0 2 2v4 3h-2l1 3-3 7-2 4 1-12 2-8z" fill="#A474C8"/>
<path transform="translate(548,263)" d="m0 0h2l2 2 4-1 3 2v2l-5-1-4 3h-4l1-5z" fill="#9A6ECC"/>
<path transform="translate(670,646)" d="m0 0h1l-1 7-7 14-3 3 1-5z" fill="#F9CAA6"/>
<path transform="translate(567,241)" d="m0 0h2v6l-9 2-4 4-2-1 7-7z" fill="#797AA6"/>
<path transform="translate(654,712)" d="m0 0 3 1-2 4-5 5h-3l2-5z" fill="#8B76B2"/>
<path transform="translate(707,567)" d="m0 0h1l1 23-3 10-1-3z" fill="#E57BB7"/>
<path transform="translate(600,272)" d="m0 0 1 3v3l4-1 3 5-1 2-8-4-2-2 1-4h2z" fill="#D3B4BE"/>
<path transform="translate(489,698)" d="m0 0 8 1 7 2 2 3h-16v-1l7-1-8-3z" fill="#8BC1BB"/>
<path transform="translate(702,625)" d="m0 0 1 4-1 1v6l-5 8-1-3 4-15z" fill="#8B6EB1"/>
<path transform="translate(549,388)" d="m0 0 8 1 8 3-1 2-9-1-7-3z" fill="#ED78B6"/>
<path transform="translate(422,283)" d="m0 0h2v2h-2l-2 4h-8l2-4z" fill="#787BA6"/>
<path transform="translate(529,363)" d="m0 0 4 1v2l2 1-2 4h-4v-2h-2z" fill="#F781B0"/>
<path transform="translate(734,611)" d="m0 0 2 1-8 19-1 2h-2l4-12h2z" fill="#EEB0B2"/>
<path transform="translate(679,352)" d="m0 0 7 6 8 8-3 1-2-4-4-2-6-6z" fill="#C9AFA4"/>
<path transform="translate(659,352)" d="m0 0 5 2 7 8-1 3-7-7-4-3z" fill="#F1C8A6"/>
<path transform="translate(433,284)" d="m0 0h3v2l-16 8-3-1z" fill="#7791AE"/>
<path transform="translate(559,268)" d="m0 0 2 1v6l4 1v-8l2 3v6l-7 1-2-7z" fill="#C06DBE"/>
<path transform="translate(553,253)" d="m0 0 3 1-3 1-1 4-5 8h-3l2-5z" fill="#8A6DAD"/>
<path transform="translate(449,682)" d="m0 0 5 2 17 7v1l-8-1v-2h-6l-8-6z" fill="#79B1B3"/>
<path transform="translate(671,365)" d="m0 0h4l7 8 5 4 1 3-4-2-13-12z" fill="#F6C8A7"/>
<path transform="translate(358,653)" d="m0 0 4 2 2 4 4 1 4 4-5-1-10-8z" fill="#79C0B4"/>
<path transform="translate(724,635)" d="m0 0 1 3-7 14-4 2 9-18z" fill="#F2B1B1"/>
<path transform="translate(647,445)" d="m0 0 11 1-1 2h-6l1 6-3-3-2-3z" fill="#B699B9"/>
<path transform="translate(385,392)" d="m0 0 1 3-6 13-1-4 3-9 3-1z" fill="#7FD1B8"/>
<path transform="translate(668,446)" d="m0 0h8v2l2 1-4 3h-3l-1-3 1-1z" fill="#EB94AD"/>
<path transform="translate(335,629)" d="m0 0h6l1 2-2 4-4-2-2-3z" fill="#8AC3BB"/>
<path transform="translate(593,314)" d="m0 0 5 1 8 7-3 1-7-6z" fill="#E6DFD5"/>
<path transform="translate(328,624)" d="m0 0 5 5 5 6h-4l-6-9z" fill="#738FAB"/>
<path transform="translate(298,582)" d="m0 0 2 3 1 3h6v4l-7-1-2-4z" fill="#9393C4"/>
<path transform="translate(597,322)" d="m0 0 5 1 2 3-1 1h-6l-2-2z" fill="#FBDF88"/>
<path transform="translate(370,664)" d="m0 0 5 2 11 8-2 1-12-8z" fill="#77A6B3"/>
<path transform="translate(329,681)" d="m0 0 5 5 4 6-1 2-8-10z" fill="#9774C9"/>
<path transform="translate(370,347)" d="m0 0v3l-5 5-7 6 2-4z" fill="#6D4D99"/>
<path transform="translate(589,289)" d="m0 0 5 2 6 4 3 5-4-2-10-8z" fill="#D6B5BB"/>
<path transform="translate(379,669)" d="m0 0 5 2 9 5v1h-5l-9-7z" fill="#7EC6B7"/>
<path transform="translate(438,272)" d="m0 0h5v3h-5z" fill="#9393C4"/>
<path transform="translate(372,669)" d="m0 0" fill="#9393C4"/>
</svg>
