<?xml version="1.0" encoding="UTF-8"?>
<svg version="1.1" viewBox="0 0 1040 1024" width="1040" height="1024" xmlns="http://www.w3.org/2000/svg">
<path transform="translate(0)" d="m0 0h1040v1024h-1040z" fill="#202229"/>
<path transform="translate(690,158)" d="m0 0 12 2 13 7 3 3v2h2l4 8 1 6v21l-5 15-6 12-3 7-6 8-3 3-4 8h-2l-2 7-8 10-4 8v10l-1 6 2 9 5 8 4 5 3 6 5 4 3 7 5 6 3 3 5 8 3 1v2l5 2 5 7 7 6v2l3 1 5 5 3 5 8 10 2 1v2l3 1 8 15 4 8 5 11 2 9 4 8 3 16 3 12 2 5 2 16 1 27-1 6-1 24-1 11-3 9-4 16h-2l-2 11-5 15h-2l-1 7-5 8-4 10-3 5-6 12h-2v2l-5 5-7 8-4 6-8 7-4 4-8 10h-2l-2 4-6 7h-2v3l-4 4h-3l-1 3-6 3-4 5h-2v2l-6 4-1 2h-2l-1 3-18 12-6 5-8 5-5 2-2 3-10 3-11 6-9 3-8 4-9 2-5 3-9 1-10 3-22 3h-19l-9 1-21-1-16-2-12-2-11-3-12-5-15-3-12-8-9-3-12-7-14-8-4-3v-2l-4-2-9-7-6-3-8-7-5-7-5-4-6-8-1-3-3-1v-2h-2l-3-5-7-8-5-8-5-5-5-8-4-4-6-11-1-3h-2l-4-9-2-8h-2l-3-9-3-4-4-17-4-6-2-4-3-12-3-14-2-9-2-23 1-33 1-13 2-10 2-6 4-17 3-9 3-10 3-11 2-13 2-10 1-27-2-2 1-1h-2l1-8 2-4h2v-2h2v-2l-2-1 2-11 5-10 3-10 8-13 6-9 3-1 5-8 6-4 4-6 4-2v-2l5-5 5-1v-2l8-4 6-8 8-7 7-4 4-4 6-8 8-6 36-18 7-2 9-3 20-5h9l9-2 13-2 1-3-10 1-6-2v-2l5-1 10-1 10-2 22-2 25 1 15-1 10 2 3-1 3 1h25l11-2v2l-4 2-1 2 14-7 4-3 6-1v-2l10-7 10-6 5-2v-2l19-9 7-3z" fill="#423D45"/>
<path transform="translate(672,124)" d="m0 0 5 2 7 1 18-1 8 3 12 2 6 4 5 5 7 1 5 8v3l-2 1 4 2 2-2 4 3 2 7 2 3-2 5v8l2 3v10l-1 9h-2v-5h-2v-9h-2l1 7h-2v6l-1 2v16l-4 6-3 4-2 11-2 8-5 4-3 7-6 9h-2l-1 10v4l-3-1-2-9-2-1-2 8-3 5-1 6 1 4 10 6 2 2 4 10 3 9 1 6 11 2 2 4-4 4v1l5 3h6l1 4-4-1 1 6 2 2 1 2 4 2 11 6 5 10 7 3 3 3 4 1v-5l3 1-2 6 3-2 2 6h2l3 14 3 3h-2v4l3-1 2 6 4 6v7l-1 5h4l1 2-1 4 2 1v9l2 7v3l-2 1 3 1 2 3 1 8 3 7 2 9v8l1 8 2-1 1 3-2 5h-2v18l-1 5-2 8h1v6l1 1v14l-2 10-1 14-3 3-1 8-5 3-1 16-2 7-1 3 2 9h-3l-2 10-2 7-2 1h3l-1 3-1 1 1 2-2 7h-2l-5 10 3-1-2 5h-4v-3l-6 4-5 8v7 4l-6 4-2 3h-2l-2 7-1 4v5l-3 3-1 7-4 3-5 3h-4l1-4h-3l-1 10 2 2-5 3-1 7-6 5h-2l-1 7-2 2-8 1-1 1-1 8-4 1-2-1-1 3-12 3-4 5-1 2-7 1-6 8-1 3-6 1-4-2h-3l-4 4-1 3-4 1-3 5-14 2 2 5-3 5-4-1h-8l-4 3-7 2-2 1-6-1-3 5-4 2-8-1 1 4-4 1-6-2v-3l-4 3-4-2h-6v2l-3 2-2 5h-21l-5 2h-4v-2l-8 2-18-1-2-1v-3h-4l1 3-1 1h-5l-2-4-7 2-1 2-7 3-4-1-5-12h-10l-14 3-4 1-9-1-2-4-5 1-6-2 1-5-3-1v2l-8 1 4 3 7 2 12 5 7-1 4 3-2 4-3 1-5-4-10-1-1 1h-7l-3-7h-7l-3-2v-4l2-2-3-3-8-4 2-1-3-6-7-2-3-3h-5l-4-6-5-1-1 6-4 2 1 2-6-1-1-4 3 1-1-5-4-4v-2l4-2-4-2h-4v3l-6-3v-2h-2l-1-7-1-3h-2l-1-5-3-4-9-1-7-5-9-5-2-6-2-5-3-5-9-1-5-4-2-10-1-4 2-1-2-1v-2l-4-1-1 2-8-6v-3h-2l-4-6-8-4 1-3-4-11v-2l-5-2-3-9v-3l-5-2-6-15-1-6-7-2-2-5 1-5-5-6h2v-15l2-8 2 1-1-6h-5l2 3-4-1-2-1-3-11-4-4-3-11 1-5v-2l-3-1-1-3v-8l3-3 1 7v4l-1 2 4 2 2 4 5 1 5 2-3-4-7-3-3-5-2-10-2-8-3 4 1-7 3-5 4-4-3-3v2l-3-1v-2l-3-1-1-3 1-33v-15l1-10 2-5-1-5h2l1-4h2v4h4l1-7h-1v-9l-3-1-1-4-4-5 4-4h2v-2h2l-1-13 1-16 2-4 5-4 2-3h2l2-7 3-10h3v-3l1-7 1-2-2-1 2-9-2-1 1-6-1-3-2 2v7l-2-1v-8l1-3 1-5h2l2-9 3-8 4-3-1-4 6-7 2 4h1l2-8 4-2 2-9 3-3 3-5 8-5v-2l8-6 8-10 4-3 4-1 3-1v-2l4-4-2-1 4-2 4-7 4-6 7-1 1 2 8-1v-2l5-3 4-5 12-6 6-4 2-6 7-4 9-2 4-2 5-1 6-7 5-2 12-1 10-3h6l1 1 8-2 5-4 1-4 7 1 2 1 3-1v3h7l4-2h8l3-1-13-1v-1h19l1 3h14l5 3h3l-3-3 19-1 5-3 6-1 5 2 10-5h18l16 3h7l11-4 10 4 5 1 1 4v2l6-3v-3l7-6 6-3h2v-2l6-5h2v-2l22-11 9-2 3-2 10-2 1-1h14l3 2h3l-6-4-19 2-7 3-2 1h-9l-11 1 2-1 2-5 10-3 5-5zm18 34-9 1-22 10-4 2v2l-5 2-16 10-4 3v2l-6 1-9 6-6 2-3 2 3-3 2-1v-2l-11 2h-25l-4-1-5 1-7-2-18 1-26-1-26 3-2 1-12 1-3 1v2l7 2 9-1-1 3-13 2-9 2h-9l-14 4-8 2-7 2-8 3-9 4-12 6-19 10-8 9-3 5-6 3-8 6-5 5-4 6-8 4v2l-5 1-5 5v2l-4 2-6 8-4 2-5 8-4 2-6 10-7 11-4 12-5 11-1 9h2v2h-2v2h-2l-3 8v4h3l-2 2 2 1-1 27-3 14-1 9-5 18-4 11-3 14-2 9-2 7-1 5-2 36v11l2 21 3 13 2 10 3 12 5 9 2 4 3 14 4 6 2 7h2l3 10 3 7h2l2 4 7 13 3 3 7 10 3 3 7 10 6 6 1 3h2l1 3h2l2 4 8 10 5 5 6 7 7 5 6 3 8 7h2v2l9 6 18 10 4 3 10 3 10 7 18 4 11 5 13 3 15 2 11 1 25 1 8-1h14l24-3 8-3 10-1 7-4 8-2 6-3 9-3 13-7 8-2 3-4 8-3 7-5 3-3 9-6 10-7v-2h2l5-5 2-1v-2h2l5-6 6-3v-2l4-1 3-3v-3l3-1 7-8v-2h2l9-11 4-4 7-6 8-11 8-8v-2h2l8-16 4-7 3-7 4-8v-4h2l5-15 2-11h2l6-22 1-8 1-6 1-24 1-7-1-29-3-17-2-4-6-28-3-5-3-12-9-18-8-14h-2v-2l-5-4-5-7-3-5-5-5-3-1-2-4-6-5-4-6-5-2v-2l-4-2-5-9-5-5-4-5-2-5-5-4-4-8-5-6-2-5-2-9 1-11 1-5 4-8 7-9 2-7h2l5-10 5-5 5-7 4-10 5-11 3-12v-21l-3-8-2-4h-2l-2-4-4-3-10-5z" fill="#2F303B"/>
<path transform="translate(697,179)" d="m0 0h6l3 3v7l-13 17-11 15-13 18-12 16-12 17-16 21-3 5 1 4 18 18 8 7 19 19 8 7 22 22v23l-1 10-15 16-8 5h-26l-11-1-3-1-10-20-19-10-11-5-9 1-6 1h-20l-17-5-14-9-10-10v2l-23 3-17 4-13 4h-3v2l-7 3-15 8-13 9-10 8-12 12-10 13-10 16-9 19-6 18-4 21-1 12v12l2 21 5 21 8 20 8 15 10 14 9 11 14 13 13 9 13 8 15 7 14 5 19 4 10 1h17l16-1 22-5 20-8 16-9 16-12 12-11 10-11 14-21 8-16 8-25 3-20v-31l-3-20-7-21-8-18-5-8v-2l10 1h11l14-3 13-7 10-10 4 2 14 21 13 25 7 22 3 12-3-23-7-30-8-23-10-21-2-3 2-24 4 4 9 15 9 19 9 23 6 21 5 25 3 31v16l-2 24-5 26-6 22-10 25-11 21-10 15-10 13-9 11-18 18-12 11-16 12-18 11-16 8-19 8-21 7-26 5-17 2h-34l-23-3-20-4-20-6-5-2-1-3-6-4-1-2-8-3-1-5 1-2h7l10 2v2h5l9 4 19 5 21 3 18 1-1-14h2l-4-8 2-16 3-4h3v-2l18-4 22-8 19-10 8-5-30 9-35 5h-33l-25-3-25-6-20-7-27-13-15-10-14-11-13-12-13-14-11-15-5-8v-7l6-1 6 2h7l-6-11-2-4v-3l10 1 3 2 10 1 12 1 4 8-5-15-4-16-3-21-2-31v-36l3-23 5-23 6-19 11-26 10-17 7-10 9-12 10-11 1-2h2v-2l8-7 10-9 21-14 19-10 4 1-1 4-5 3 1 9-4 4-7 2-4 5-3 2-4 11v5l-10 9-7 8-10 13-12 21-8 16-4 10 14-14 16-12 13-8 16-8 16-6 19-5 22-2-4-15v-14h14l3 19 4 10 9 10 11 7 13 4h14l12-3 6-1 38 18 7 8 6 13h22l7-3 7-6 2-4 1-18-3-5-16-16-8-7-17-16-14-14-8-7-7-7-8-7-8-8-11-8-15-7-5-3 2-37-10 7-8 8-8 13-5 9-23 1-8 1h-9l-6-3v-5l7-3 1-4 18-2h12l2-5 6-10-22-3-13-1v-1l5-1 4-12 17 1 16 3h7l13-9 14-8 4-1 1 53 9-6 10-9 14-11 11-9 10-8 16-13 13-10 11-9 17-14z" fill="#F6C4A4"/>
<path transform="translate(485,229)" d="m0 0h24l3 1-1 6-3 7 24 3 7 2-7 12-2 3-23 2h-7l1 3-5 4h-4v5l6 2h9l8-1h23l2-5 6-11 7-9 8-8 6-4h2v20l-1 17 15 7 10 6 13 12 17 16 15 14 14 14 8 7 17 16 10 10 1 3-1 18-4 6-7 6-6 2h-22l-9-17-6-5-27-13-9-4-18 4h-14l-15-5-10-7-7-7-5-10-3-13v-9h-14l1 14 3 12v3l-14 2-16 3-17 5-19 8-17 10-14 10-13 12-5 6-2-1 7-17 12-22 11-16 11-13 8-8 2-1 1-7 4-10 5-4 3-4 8-1 1-8-1-4 6-4-1-3-6 2-17 9-16 11-11 9-8 8h-2v2h-2l-2 4-10 11-8 11-12 19-8 16-9 22-7 26-4 25-1 9v36l3 41 4 20 5 16 2 8-3-3-3-6-11-1h-6l-6-2-5-1-6-2 7 14 2 5h-8l-9-2h-3l1 7 10 15 9 11 12 13 12 11 16 12 15 9 25 12 21 7 22 5 25 3h33l35-5 26-8 5-1-3 3-17 10-18 8-15 5-11 2h-4v2l-3 1-2 3-2 16 3 6-1 3 1 11-1 2-8 1-26-3-17-4-21-7v-2h-8l-9-2v6l9 4 4 4 3 2v2l-5-1-20-9-19-11-17-12-13-11-8-7-14-14-7-9-9-11-11-17-13-24-7-16-7-21-2-7-4-19-3-20v-44l3-22 6-27 4-14 5-12 6-15 10-20 10-16 10-14 10-13-30 9-10 5-18 8-5 2 2-5 11-16 13-17 13-15 18-18 11-9 13-10 15-10 25-13h3v-2l-8-1-13-4 4-3 27-11 25-8 27-6z" fill="#9E67B9"/>
<path transform="translate(690,158)" d="m0 0 12 2 13 7 3 3v2h2l4 8 1 6v21l-5 15-6 12-3 7-6 8-3 3-4 8h-2l-2 7-8 10-4 8v10l-1 6 2 9 5 8 4 5 3 6 5 4 3 7 5 6 3 3 5 8 3 1v2l5 2 5 7 7 6v2l3 1 5 5 3 5 8 10 2 1v2l3 1 8 15 4 8 5 11 2 9 4 8 3 16 3 12 2 5 2 16 1 27-1 6-1 24-1 11-3 9-4 16h-2l-2 11-5 15h-2l-1 7-5 8-4 10-3 5-6 12h-2v2l-5 5-7 8-4 6-8 7-4 4-8 10h-2l-2 4-6 7h-2v3l-4 4h-3l-1 3-6 3-4 5h-2v2l-6 4-1 2h-2l-1 3-18 12-6 5-8 5-5 2-2 3-10 3-11 6-9 3-8 4-9 2-5 3-9 1-10 3-22 3h-19l-9 1-21-1-16-2-12-2-11-3-12-5-15-3-12-8-9-3-12-7-14-8-4-3v-2l-4-2-9-7-6-3-8-7-5-7-5-4-6-8-1-3-3-1v-2h-2l-3-5-7-8-5-8-5-5-5-8-4-4-6-11-1-3h-2l-4-9-2-8h-2l-3-9-3-4-4-17-4-6-2-4-3-12-3-14-2-9-2-23 1-33 1-13 2-10 2-6 4-17 3-9 3-10 3-11 2-13 2-10 1-27-2-2 2-2 4-3 31-14 23-7h4l-2 4-13 17-9 14-9 16-9 19-7 19-3 9-5 18-5 27-1 10v44l3 20 4 19 2 7 9 26 10 21 11 19 10 14 7 9 11 13 15 15 14 11 12 9 18 11 15 8 25 10 21 6 29 5 10 1h34l23-3 20-4 24-8 25-11 19-11 14-10 11-9 10-9 3-1 2-4 14-14 13-17 10-14 13-24 8-19 6-18 6-26 3-20 1-16v-16l-3-31-5-25-6-21-11-28-12-23-5-7-1-5v-4l-2-5-2-1v-2l-4-2-3-2v-2l-5-2-6-3-6-7-4-9-4-6-4-3v-3l-3-1-6-17-1-5 1-12-1-2 1-9-1-2 2-5-1-5 3-1 1-6 3-4h2l2-4 7-11 2-4 2-1 5-9h2v-3h2l1-6 2-5 1-8 4-9v-10l1-2h-2v-3h-2l-2-6-2-2h-6l-14 11-13 11-17 13-17 14-30 24-13 11-9 6-1-1v-53l-15 8-13 9-3 2h-7l-16-3-20-2h-24l-27 4-28 7-26 9-21 9 4 2 15 4v2l-23 11-17 11-16 12-14 12-18 18-9 11-14 18-10 15-3 6h-2l1-8 2-4h2v-2h2v-2l-2-1 2-11 5-10 3-10 8-13 6-9 3-1 5-8 6-4 4-6 4-2v-2l5-5 5-1v-2l8-4 6-8 8-7 7-4 4-4 6-8 8-6 36-18 7-2 9-3 20-5h9l9-2 13-2 1-3-10 1-6-2v-2l5-1 10-1 10-2 22-2 25 1 15-1 10 2 3-1 3 1h25l11-2v2l-4 2-1 2 14-7 4-3 6-1v-2l10-7 10-6 5-2v-2l19-9 7-3z" fill="#464343"/>
<path transform="translate(697,179)" d="m0 0h6l3 3v7l-13 17-11 15-13 18-12 16-12 17-16 21-3 5 1 4 18 18 8 7 19 19 8 7 22 22v23l-1 10-15 16-8 5h-26l-11-1-3-1-10-20-19-10-11-5-9 1-6 1h-20l-17-5-14-9-10-10v2l-23 3-17 4-13 4h-3v2l-7 3-15 8-13 9-10 8-12 12-10 13-10 16-9 19-6 18-4 21-1 12v12l2 21 5 21 8 20 8 15 10 14 9 11 14 13 13 9 13 8 15 7 14 5 15 4-4 4-3 2-1 3 6 3 17 4 11 1 1 2-6 1h-33l-25-3-25-6-20-7-27-13-15-10-14-11-13-12-13-14-11-15-5-8v-7l6-1 6 2h7l-6-11-2-4v-3l10 1 3 2 10 1 12 1 4 8-5-15-4-16-3-21-2-31v-36l3-23 5-23 6-19 11-26 10-17 7-10 9-12 10-11 1-2h2v-2l8-7 10-9 21-14 19-10 4 1-1 4-5 3 1 9-4 4-7 2-4 5-3 2-4 11v5l-10 9-7 8-10 13-12 21-8 16-4 10 14-14 16-12 13-8 16-8 16-6 19-5 22-2-4-15v-14h14l3 19 4 10 9 10 11 7 13 4h14l12-3 6-1 38 18 7 8 6 13h22l7-3 7-6 2-4 1-18-3-5-16-16-8-7-17-16-14-14-8-7-7-7-8-7-8-8-11-8-15-7-5-3 2-37-10 7-8 8-8 13-5 9-23 1-8 1h-9l-6-3v-5l7-3 1-4 18-2h12l2-5 6-10-22-3-13-1v-1l5-1 4-12 17 1 16 3h7l13-9 14-8 4-1 1 53 9-6 10-9 14-11 11-9 10-8 16-13 13-10 11-9 17-14z" fill="#79DBB6"/>
<path transform="translate(491,402)" d="m0 0 13 2 7 3 5 1v2h-5l1 3-3 2 9 3h5l5 4-1 4h-10l-14 12-10 9-8 7-14 12-10 9-8 7-10 9-8 7-1 1 1 7 15 16 7 8 3 2 5-1 8-7 12-11 8-7 10-9 16-14 6 1 9 9 11 9 14 13 8 7 10 8 5-1 7-7 7-8 7-7 2-3-1-5-8-8-8-7-14-12-11-10-8-7-7-8-10-9-7-6 1-6 14 2 3 3 5 3h10l9 1 4 1 7-3 5 1 1 2 9 1 9 7 5 5 4 8 2 16 3 11 2 10 1 8 1 6 3 12-1 16v7l-4 10-3 6-2 13-2 5h-2l-1 4-5 5h-2l-2-7-16-13-9-7h-5l-13 14-11 8-13 6-11 2h-15l-15-4-10-5v-2h-3l-14-14-3-4-7-1-16 13-11 9 1 5 9 10 10 9 1 3 4 1v2l5 2 10 6 14 6 18 4h27l20-4 15-6 15-9 15-13 7-8 5-2-3 5-1 6-3 8-5 5h-2l-2 4-12 12-8 5-6 3-1 2h-2v2h-2v2l-7 3-10 2-3 1 8 2-3 2-8 4-5 2-7-1-7 1h-12l-2 1h-8l-7 2-17-3-5-2-8-1-10-6-7-5-8-6-5-5-3-4v-2l-4-2-6-7-2-9-4-2-3-1-8-11-1-5-1-6-3-8-4-6-2-1-3-13-1-7 1-5v-10l-1-4 4-8 1-3 1-11 3-9 3-13 3-6 2-9 6-11 7-11 4-6 7-9 4-3 5-3 11-6 5-4 6-3 7-4h2l1-2 4-1 7-4 5 1v2z" fill="#30313C"/>
<path transform="translate(567,241)" d="m0 0h2v20l-1 17 15 7 10 6 13 12 17 16 15 14 14 14 8 7 17 16 10 10 1 3-1 18-4 6-7 6-6 2h-22l-9-17-6-5-27-13-9-4-18 4h-14l-15-5-10-7-7-7-5-10-3-13v-9h-14l1 14 3 12v3l-14 2-16 3-17 5-19 8-17 10-14 10-13 12-5 6-2-1 7-17 12-22 11-16 11-13 8-8 2-1 1-7 4-10 5-4 3-4 8-1 1-8-1-4 6-4-1-3-6 2-17 9-16 11-11 9-8 8h-2v2h-2l-2 4-10 11-8 11-12 19-8 16-9 22-7 26-4 25-1 9v36l3 41 4 20 5 16 2 8-3-3-14-28-7-19-4-15-5-26-1-7v-54l-8-4-2-4-9-3 1-6 8-17 12-20 10-14 11-13 9-10 14-14 17-13 17-12 22-12 21-9 17-6 12-4 15-3 16-2h23l2-5 6-11 7-9 8-8z" fill="#584060"/>
<path transform="translate(719,385)" d="m0 0 4 4 9 15 9 19 9 23 6 21 5 25 3 31v16l-2 24-5 26-6 22-6 15-4 3-7-2-1-3 1-7 5-17 1-10 2-6 4-23 1-15v-6l-5-1-7-1-4-2-5 1-10 1h-7l-3-3-4-9-5-17-2-6h-2l-11-23-4-6 4 16 4 17 3 24 1 16v25l-2 20-6 27-5 16-8 19-11 21-13 19-9 11-8 9h-4l-3-3v-2h-2v-2l-4-2v-2h-2l2-4 8-8 7-9 5-5 5-9h-2l-5-6-6-1-9 6-7-1-1-4-6-2 4-4 9-7 10-9 7-7 11-15 8-13 7-14 8-25 3-20v-31l-3-20-7-21-8-18-5-8v-2l10 1h11l14-3 13-7 10-10 4 2 14 21 13 25 7 22 3 12-3-23-7-30-8-23-10-21-2-3z" fill="#F5A1A4"/>
<path transform="translate(697,179)" d="m0 0h6l3 3v7l-13 17-11 15-13 18-12 16-12 17-16 21-3 5 1 4 18 18 8 7 19 19 8 7 22 22v23l-1 10-15 16-8 5h-26l-11-1-3-1-10-20-19-10-11-5-9 1-6 1h-20l-17-5-14-9-10-10v2l-23 3-17 4-16 5-5-1-4-4-1-6 4-3 17-6 16-4 22-2-4-15v-14h14l3 19 4 10 9 10 11 7 13 4h14l12-3 6-1 38 18 7 8 6 13h22l7-3 7-6 2-4 1-18-3-5-16-16-8-7-17-16-14-14-8-7-7-7-8-7-8-8-11-8-15-7-5-3 2-37-10 7-8 8-8 13-5 9-23 1-8 1h-9l-6-3v-5l7-3 1-4 18-2h12l2-5 6-10-22-3-13-1v-1l5-1 4-12 17 1 16 3h7l13-9 14-8 4-1 1 53 9-6 10-9 14-11 11-9 10-8 16-13 13-10 11-9 17-14z" fill="#F9E8AD"/>
<path transform="translate(485,229)" d="m0 0h24l3 1-1 6-3 7 24 3 7 2-7 12-2 3-23 2h-7l1 3-5 4h-4v5l6 2 1 2-19 4-20 7-24 10-19 10-11 7-19 14-13 11-16 16-9 11-8 10-12 19-3 5h-2v-2l-7-2-5-2 4-8 12-18 11-14 2-3-30 9-10 5-18 8-5 2 2-5 11-16 13-17 13-15 18-18 11-9 13-10 15-10 25-13h3v-2l-8-1-13-4 4-3 27-11 25-8 27-6z" fill="#8B9EBB"/>
<path transform="translate(706,183)" d="m0 0h1v5h2v3h2v12l-4 9-2 11-3 8h-2v3l-3 3-4 7-2 1-3 6-2 5-5 5-1 2h-2l-2 4-2 6-2 1 1 5-2 6 1 1-1 10 1 2-1 12 1 4 6 17 2 1 2 4 5 5 3 4 3 8 4 4 1 3 6 2 5 3v2l4 2 3 2v2l4 2 2 5-1 6h-1l-1 15-1 8 8 15 8 20 6 20 5 22 3 23v5l-2-4-5-20-6-17-13-25-14-20-4 2-8 8-16 8-11 2h-11l-10-2 7 12 10 24 5 18 2 15v31l-3 20-9 27-8 16-11 16-9 11-12 12-17 13-17 10-16 7-22 6-13 1 1-3 11-2v-2l9-2 4-4 12-6 6-4 7-4 9-3h3v-2l7-5 6-8 1-4-4-1-1-6 9-9 8-16 7-9 6-12 4-14 5-14 2-16v-7l2-7-1-12-1-7-1-6v-9l-5-13 1-6v-8l-3-8-1-2v-7l4 2 5 5-2-4-1-4h2l1-5 2-5-1-6-4-2h34l9-6 7-7 6-7 1-10v-23l-27-27-8-7-19-19-8-7-14-14 1-5 16-21 12-17 14-19 13-18 24-32z" fill="#60514F"/>
<path transform="translate(567,241)" d="m0 0h2v20l-1 17 15 7 10 6 13 12 17 16 12 11-4 3-5 1-7 3-9 1-9-1-5-3-3-3-3-2 2-1-6-3-4-6-3-10-1-3h2l-3-5v-2h-2v-2l-7-2-1-2-13-2-4-1-3 2-22 4-21 7-19 8-15 9-20 15-1-4 5-12 5-4 3-4 8-1 1-8-1-4 6-4-1-3-6 2-17 9-16 11-11 9-8 8h-2v2h-2l-2 4-10 11-8 11-12 19-8 16-9 22-7 26-4 25-1 9v36l3 41 4 20 5 16 2 8-3-3-14-28-7-19-4-15-5-26-1-7v-54l-8-4-2-4-9-3 1-6 8-17 12-20 10-14 11-13 9-10 14-14 17-13 17-12 22-12 21-9 17-6 12-4 15-3 16-2h23l2-5 6-11 7-9 8-8z" fill="#4D5D7A"/>
<path transform="translate(337,356)" d="m0 0h4l-2 4-13 17-9 14-9 16-9 19-7 19-3 9-5 18-5 27-1 10v44l3 20 4 19 2 7 9 26 10 21 11 19 10 14 7 9 11 13 15 15 6 8 9 7 3 1 5 5v2h2v2l4 2 1 3 7 3 4 5 5 3 2 4 4 4 7 3 13 5 16 8 5 4 16 3v2l4-1 23 6 21 1h12l19-1h8l16-3 7-1 8-1-4 3-9 1-10 3-22 3h-19l-9 1-21-1-16-2-12-2-11-3-12-5-15-3-12-8-9-3-12-7-14-8-4-3v-2l-4-2-9-7-6-3-8-7-5-7-5-4-6-8-1-3-3-1v-2h-2l-3-5-7-8-5-8-5-5-5-8-4-4-6-11-1-3h-2l-4-9-2-8h-2l-3-9-3-4-4-17-4-6-2-4-3-12-3-14-2-9-2-23 1-33 1-13 2-10 2-6 4-17 3-9 3-10 3-11 2-13 2-10 1-27-2-2 2-2 4-3 31-14z" fill="#443C5A"/>
<path transform="translate(731,402)" d="m0 0h3l2 2 7 6 4 6 3 3v4l4 2 6 11v3h2l4 13 5 15 2 9 2 7 1 14 1 8 1 14v25l-2 15-1 7-2 17-4 13-2 7-4 9-3 10-2 2-4 12-3 4-3 7-6 9-3 6-5 5-6 11-6 7-5 4h-2v2l-4 1 2 6-2 4-2 2-2 1-1 3-5 3-1 3-6 4-4 5-3-2 1 3-3 1-3 5-11 6-5 3-3 6-5 5-2 4-5 5-6 3-10 10-10 3-11 6-9 3-8 4-30 6-14 2h-12l-16 1h-16l-13-1-24-6h-3v-2l-12-1-5-2-6-4-16-8-11-4-10-5-3-6-8-6-1-3-7-2-3-5-2-1v-2h-2l-5-5v-2l-4-1-10-8-4-6 4 2 16 13 17 11 18 10 21 9 18 6 21 5 19 3 10 1h34l23-3 20-4 24-8 25-11 19-11 14-10 11-9 10-9 3-1 2-4 14-14 13-17 10-14 13-24 8-19 6-18 6-26 3-20 1-16v-16l-3-31-5-25-6-21-11-28-7-14z" fill="#584060"/>
<path transform="translate(257,570)" d="m0 0 3 3 2 13 3 9 2 7 6 12 3 14 4 6 1 7h2l5 14 1 3h2l9 15v2l3 1 7 11 4 4 7 10 6 6v3h2l7 8 6 8 5 5 6 7 7 5 6 3 8 7 2 1v2l4 2 14 8 9 5 4 3 10 3 10 7 18 4 11 5 13 3 15 2 11 1 25 1 8-1h14l24-3 8-3 10-1 7-4 8-2 6-3 9-3 13-7 8-1 2-4 10-5 5-3 4-4 18-12 1-2h2l2-4 5-2v-2h2l2-4 3-3 5-2 1-2 3-1 2-3h2v-3l5-5h2l3-6h2l2-4 6-7 10-10h2l2-4 6-8h2l2-5 4-2v-2h2l2-7 5-9 4-7 3-7 4-8 1-4h2l1-6 6-20 1 4-2 9-7 21-4 7-5 13-2 6h-2l-2 5-7 12-6 9h-2l-1 4-6 8-3 5-5 3-2 5-6 8-7 7-2 4h-2v2h-2v2l-5 5-11 10h-4l-2 5-8 6-8 12-7 5-11 6-3 4-9 2-6 4-6 2-2 2-7 2-3 3-17 5-6 4-9 1-1 1-14 3-16 2-9 1-38 1-18-1-9-2-5-1h-10l-3-1v-2l-6-1-19-4-12-4-8-5-10-5-7-3-9-5v-2h-2v-2l-5-2-9-5-14-12-6-5v-2l-5-2-7-8-3-1v-2l-4-2-5-5-6-7v-2h-2v-2l-4-2-8-11-6-8-5-9-6-7-6-11v-2h-2l-6-12-2-6h-2v-2l-3-1-3-7-4-12-2-3v-3l-3-1-4-12-3-15-2-6v-7l2-4h2l1-4 2 4z" fill="#373246"/>
<path transform="translate(370,561)" d="m0 0 2 2 6 21 8 18 6 11 10 14 9 11 14 13 13 9 13 8 15 7 14 5 15 4-4 4-3 2-1 3 6 3 17 4 11 1 1 2-6 1h-33l-25-3-25-6-20-7-27-13-15-10-14-11-13-12-13-14-11-15-5-8v-7l6-1 6 2h7l-6-11-2-4v-3l10 1 3 2 10 1 12 1 4 8-2-6v-6l2-2v-7l3-5z" fill="#7ADCB6"/>
<path transform="translate(519,426)" d="m0 0 5 1 12 11 11 9 14 13 11 9 13 12 8 7 10 9 3 3-1 5-7 8-7 7-7 8-3 3-6-1-14-13-8-7-10-9-11-9-7-7-5-3-11 9-12 11-8 7-14 12-11 10-5-1-10-10-14-16 1-6 12-11 11-9 15-14 11-9 12-11 8-7 10-9z" fill="#F7648C"/>
<path transform="translate(491,402)" d="m0 0 13 2 7 3 5 1v2h-5l1 3-3 2 1 2-8-1v2l-10 1-14 5-7 1-8 4-5 5-9 7-3 4-3 7-4 2-1 3h-2l-1 5-4 6-4 5-4 15-2 9-4 4-4 13-1 3v8l1 5-5 10 1 10 8 15 3 9 1 11 1 3 9 3 3 12 2 7 15 9 3 6 6 4v2l8 1 20 10 5 3 12 2 3-1h8v2l3-2 10 1 19 1 2 2-11 5-5 2-7-1-7 1h-12l-2 1h-8l-7 2-17-3-5-2-8-1-10-6-7-5-8-6-5-5-3-4v-2l-4-2-6-7-2-9-4-2-3-1-8-11-1-5-1-6-3-8-4-6-2-1-3-13-1-7 1-5v-10l-1-4 4-8 1-3 1-11 3-9 3-13 3-6 2-9 6-11 7-11 4-6 7-9 4-3 5-3 11-6 5-4 6-3 7-4h2l1-2 4-1 7-4 5 1v2z" fill="#39414C"/>
<path transform="translate(460,558)" d="m0 0 7 1 5 7 6 5v2l5 2 1 3h3v2l4 1 10 4 11 3h15l14-3 15-8 12-11 7-8h5l16 13 11 9v6l-11 13-10 9-15 10-16 7-16 4-7 1h-27l-18-4-16-7-13-8-1-2-3-1-7-8-10-9-5-6 1-5 14-12z" fill="#4BA5B6"/>
<path transform="translate(521,368)" d="m0 0 12 12 13 8 17 5h20l9-2h6l29 14 4 5 4 9 3 6v2l11 2 1 8-5 10 4 8-5-2-6-6 2 9 3 8v8l-1 6 5 13v11l1 9 2 10-1 10-1 1v9l-1 10-5 16-3 10-3 8-6 12-4 5h-2l-3 9-6 10-8 8v6l5 1-3 7-7 8-5 2v2l-9 2-1 2-5 2-10 6-12 6h-2l-2 4-9 1v2l-6 2-5 1-1 2-9 1h-17l-16-2-10-2 3-1 1-2 7 1 3-1 9-2 12-6 10-4 10-2 24-12h2l1-2 4-1v-2l9-3v-2l7-6 5-7 5-4h2l1-3 3-3h3l6-8 2-5h2l1-5 5-5 8-16 5-7 3-10 3-16 1-10-1-9v-6l-1-7-2-9v-13l-1-4h-2l-1-7 1-12h-2l-1-5v-8l-2-7-6-12v-2h-2l-5-5-10-8v-3l-4-2-8-3-8-2-1-2-9 1-14-1h-8l-2-2 1-1-6-2v-2l-20-5v-4l-7-2-5-4-10-4-3-3-3-2-9 1-3-1-11 2-9 1 3-2 25-7 18-3h10z" fill="#53464E"/>
<path transform="translate(677,473)" d="m0 0 4 4 11 21 8 22 4 16 4 27v12l-2 26-1 7v12l2 2h7l3-1 4 1 1 7 1 2-1 3h2l-2 6-10 18-10 14-12 14-9 10-9 9-11 9-12 9-17 11-16 8-21 9-24 7-22 4h-11v-1l17-4 19-7 23-12 16-12 10-9 7-6 7-8 10-13 11-17 13-25 7-18 8-32 2-13 1-13v-25l-2-24-3-21-7-26z" fill="#7A5671"/>
<path transform="translate(292,540)" d="m0 0h1l4 19 7 21 7 16 10 17 9 12 12 14 10 10 11 9 15 11 16 9 21 10 21 7 22 5 25 3h33l35-5 26-8 5-1-3 3-17 10-18 8-15 5-19 4-3 1-12 1h-38l-21-3-16-4-9-1-1 7 3 1 2 4-1 5-6 2-7-3-10-6-1-2-7-4-13-11-23-23v-3l-4-2-1-4-4-2v-3l-4-2-5-9-4-6v-2h-2l-8-16-14-35-6-25-3-19z" fill="#4C5E7A"/>
<path transform="translate(457,388)" d="m0 0 1 3-1 5-5 10h-2v2h-2l-1 3-8 6-4 2-7 7-3 7-4 5-2 4-4 10-9 14-3 7-2 9-2 3-5 21-1 1-1 11-4 10-1 2 1 3v10l-1 10 2 4 1 11 3 1 5 7 3 12v5l8 10v2l4 1 4 4 3 8 6 7 3 3 4 6 9 7 5 3 5 4 36 18 18 4h8l4 2-9 4-7 3-8 2-7-1-1 1-10-1-15-6-17-9-12-8-10-8-15-14-12-16-8-13-8-17-6-18-3-14-2-21v-12l2-19 5-21 8-20 9-17 12-17 12-13 8-8 17-12 14-8z" fill="#485367"/>
<path transform="translate(312,431)" d="m0 0 10 4 2 5 6 2 3 2v54l5 28 4 17 7 20 8 17 3 5v2l-11-1h-6l-6-2-5-1-6-2 7 14 2 5h-8l-9-2h-3l1 5h-2l-8-15-8-22-5-21-1-5v-28l4-29 6-25 7-20z" fill="#7D57A4"/>
<path transform="translate(706,183)" d="m0 0h1v5h2v3h2v12l-4 9-2 11-3 8h-2v3l-3 3-4 7-2 1-3 6-2 5-5 5-1 2h-2l-2 4-2 6-2 1 1 5-2 6 1 1-1 10 1 2-1 12 1 4 6 17 2 1 2 4 5 5 3 4 3 8 4 4 1 3 6 2 5 3v2l4 2 3 2v2l4 2 2 5-1 6h-1l-1 15-1 8 8 15 2 5-1 3-5-9h-2l-13-1-8-4-3-4 4-6 1-10v-23l-27-27-8-7-19-19-8-7-14-14 1-5 16-21 12-17 14-19 13-18 24-32z" fill="#57405F"/>
<path transform="translate(677,514)" d="m0 0 7 3 5 20 1 10v25l-2 20-6 27-5 16-8 19-11 21-13 19-9 11-8 9h-4l-3-3v-2h-2v-2l-4-2v-2h-2l2-4 8-8 7-9 5-5 5-9h-2l-5-6-6-1-9 6-7-1-1-4-6-2 4-4 9-7 10-9 7-7 11-15 8-13 7-14 8-25 3-20 1-9 1-20 1-2z" fill="#F9DB99"/>
<path transform="translate(686,169)" d="m0 0h7l10 6 4 2-1 3 2 1-3 1-2-2h-6l-14 11-13 11-17 13-17 14-30 24-13 11-9 6-1-1v-53l-15 8-13 9-3 2h-7l-16-3-20-2-2-1-26-1 3-5 5-2 14-2 18-4 8-2 15-2h27v2l7-1h21l9-3 2-1 2 1v-2l4-2 4-1 4-4 14-7 5-3h2v-2h3l1-2 10-6 14-6 8-2 1-2z" fill="#584060"/>
<path transform="translate(550,205)" d="m0 0 16 2h17l22 3-6 3h-28v-2l-17 1h-13l-18 3-13 3-12 3-13 2-3 4 25 1v1l-22 1-27 4-28 7-26 9-21 9 4 2 15 4v2l-23 11-17 11-16 12-14 12-18 18-9 11-14 18-10 15-3 6h-2l1-8 2-4h2v-2h2v-2l-2-1 2-11 5-10 3-10 8-13 6-9 3-1 5-8 6-4 4-6 4-2v-2l5-5 5-1v-2l12-6 2-4 6-3h2v-2l7-2 4-3h2l2-4 4-4 1-3 8-3 6-2 7-3 4-4 7-3 9-6 7-2 2-4 6-1v-1l10-2 29-6 21-3 4-1 29-1 3-1z" fill="#443D5B"/>
<path transform="translate(603,660)" d="m0 0 5 1 2 1 1 3 7 1 9-6 6 1 5 5v2h2l-1 4-7 10h-2l-2 4-2 3h-2l-2 4-8 8-1 2h2l4 4v2h2v2l3 1v2l3 1-11 10-16 12-12 7h-5l-5-8-2-8-5 1-5-2-3-3-1-9v-9l5-5 13-9 1-2-30 9-22 3-19-1-20-5-4-4 1-4 5-2 3-2 14 1h17l16-1 22-5 20-8 16-9z" fill="#F5A0A4"/>
<path transform="translate(579,691)" d="m0 0 2 1-11 8-4 3h-2l-1 5v10l2 7 2 2 5 1 4-1 3 9 4 7 3 2-19 9-19 6-4 1 11-1 19-4 8-1-3 2-20 5-23 3h-9l1 3-3 2 2 4 5 1 15-1 9-1 19-3 20-6 14-5 3 1-24 9-21 5-19 3-10 1h-34l-23-3-20-4-20-6-5-2-1-3-6-4-1-2-8-3-1-5 1-2h7l10 2v2h5l9 4 19 5 21 3 18 1-1-14h2l-4-8 2-16 3-4h3v-2l18-4 22-8 19-10z" fill="#CD68B5"/>
<path transform="translate(690,158)" d="m0 0 12 2 13 7 3 3v2h2l4 8 1 6v21l-5 15-6 12-3 7-5 3-4 4h-2l-1 4-2 3h-2l-2 6-3 1-1 4-6 5-8 15-2 11-3-1 1-10-1-2 2-5-1-5 3-1 1-6 3-4h2l2-4 7-11 2-4 2-1 5-9h2v-3h2l1-6 2-5 1-8 4-9v-10l1-2h-2v-3h-2l-1-11-6-3-7-4h-11l-1 3-11 3-14 7-8 5h-3v2l-10 6-8 4h-3l-1 3-4 3-7 1v2l-4 1-3 1-25-3h-14l-16-2-19 1-3 1-30 1-16 3-24 4-15 4-7 1-3 1-5 2-3 3-10 5-4 3-7 3-3 1-1 3-7 2-1 2-9 2-4 3-2 4-8 7-6 3h-4v2l-6 3h-2l-2 5-3 1 2-5 5-4 5-5 5-4 5-2 7-10 7-6 38-19 7-2 9-3 20-5h9l9-2 13-2 1-3-10 1-6-2v-2l5-1 10-1 10-2 22-2 25 1 15-1 10 2 3-1 3 1h25l11-2v2l-4 2-1 2 14-7 4-3 6-1v-2l10-7 10-6 5-2v-2l19-9 7-3z" fill="#464343"/>
<path transform="translate(486,244)" d="m0 0h30l22 3v3l-8 13-30 3-16 3-24 7-20 7-22 11-21 13-19 14-14 12-9 9-3-1v-2l-19 4-13 4 2-4h2l2-4 5-6h2l2-4 13-12 14-11 12-9 21-12 19-9 28-9 4-2-16-6-3-3 11-4 30-6z" fill="#625084"/>
<path transform="translate(567,241)" d="m0 0h2v20l-1 17 15 7 10 6 13 12 17 16 12 11-4 3-5 1-7 3-9 1-9-1-5-3-3-3-3-2 2-1-6-3-4-6-3-10-1-3h2l-3-5v-2h-2v-2l-7-2-1-2-13-2-4-1-3 2-22 4-21 7-19 8-15 9-20 15-1-4 5-12 5-4 3-4 8-1 1-8-1-4 6-4-1-5 24-8v-1l16-2h23l2-5 6-11 7-9 8-8z" fill="#635084"/>
<path transform="translate(473,290)" d="m0 0 4 1-1 4-5 3 1 9-4 4-7 2-4 5-3 2-4 11v5l-10 9-7 8-10 13-12 21-8 16-4 10 14-14 16-12 13-8 13-7 2 1 1 6 5 4 3 2-7 3-15 8-13 9-10 8-12 12-5 6-5-5-5-3-5 4-6 8-4 7-9 16h-2l1-11 5-22 5-17 11-25 8-14 6-9 3-2 5-9 10-11 3-2 2-7 3-1 2-6-1-2-6 2 5-5 10-8 19-12z" fill="#67BEB8"/>
<path transform="translate(550,289)" d="m0 0 13 2 5 2v2l5 1 2 1v2h2l3 5v2h-2l3 7 1 5h-2l-1-3-2-1v-2h-2l-2-6-5-2-8-6v-2l-8-2h-4l3 2v2l-5 1h-11l-10 1-6 4-3 1-2 4-5 3-4 17-2 10-3 2-2-1-2-4-4-1-5 5 3 1v2l-3 2-1 6 1 3 4-1 1 6-7 3-4 2-16 5-18 8-15 9-14 10-13 12-5 6-2-1 7-17 12-22 11-16 11-13 8-8 8-7 18-13 18-10 13-5 21-7 22-4z" fill="#54476F"/>
<path transform="translate(731,402)" d="m0 0h3l2 2 7 6 4 6 3 3v4l4 2 6 11v3h2l4 13 5 15 2 9 2 7 1 14 1 8 1 14v25l-2 15-1 7-2 17-4 13-2 7-4 9-3 10-2 2-4 12-3 4-3 7-6 9-3 6-5 5-6 11-6 7-5 4h-2v2l-6 2-2 4-4 1-4 7-10 7-5 5-5 3-10 8-2-1 14-12 4-4h2l2-4 14-14 13-17 10-14 13-24 8-19 6-18 6-26 3-20 1-16v-16l-3-31-5-25-6-21-11-28-7-14z" fill="#60514F"/>
<path transform="translate(485,229)" d="m0 0h24l3 1-1 6-3 7-5 1-28 2-28 5-11 3-8 3 12 5 9 3-3 2-29 9-16 7-17 9-17 11-16 13-14 12-4 5h-2l-2 4-5 6-4 1v-2l-4-2-7-3 6-8 20-20 11-9 13-10 15-10 25-13h3v-2l-8-1-13-4 4-3 27-11 25-8 27-6z" fill="#8A9EBB"/>
<path transform="translate(782,595)" d="m0 0 1 4-2 9-7 21-4 7-5 13-2 6h-2l-2 5-7 12-6 9h-2l-1 4-6 8-3 5-5 3-2 5-6 8-7 7-2 4h-2v2h-2v2l-5 5-11 10h-4l-2 5-8 6-1 2-10 5-5 5-8 6h-3v2l-16 8-11 5-13 6-15 6-19 4-5 2h-17l-12 3h-36l-15-3h-6l-7-2h-9l-11-2-7-3-13-4-7-2-5-2-3-3-7-3v-2l-5-2-7-3v-2l-6-2-7-3v-2l-4-2-5-4v-2l6 2 11 7 6 3 9 3 12 8 18 4 11 5 13 3 15 2 11 1 25 1 8-1h14l24-3 8-3 10-1 7-4 8-2 6-3 9-3 13-7 8-1 2-4 10-5 5-3 4-4 18-12 1-2h2l2-4 5-2v-2h2l2-4 3-3 5-2 1-2 3-1 2-3h2v-3l5-5h2l3-6h2l2-4 6-7 10-10h2l2-4 6-8h2l2-5 4-2v-2h2l2-7 5-9 4-7 3-7 4-8 1-4h2l1-6z" fill="#423748"/>
<path transform="translate(511,329)" d="m0 0h14l3 19 4 10 9 10 11 7 13 4h14l12-3 6-1 38 18 7 8 6 13 16 1v1l6 1-2 1-1 9 11 1v1h-26l-11-1-3-1-10-20-19-10-11-5-9 1-6 1h-20l-17-5-14-9-10-10v2l-23 3-17 4-16 5-5-1-4-4-1-6 4-3 17-6 16-4 22-2-4-15z" fill="#D57EB1"/>
<path transform="translate(460,558)" d="m0 0 7 1 5 7 6 5v2l5 2 1 3h3v2l4 1 10 4 11 3 13 1v1l-8 1v23l2 9v6h13v1h-27l-18-4-16-7-13-8-1-2-3-1-7-8-10-9-5-6 1-5 14-12z" fill="#5682B7"/>
<path transform="translate(581,216)" d="m0 0h2l1 53 9-6 4-4 2 1-2 3 1 2 8 1 1 2 10-8 2 2v23l-3 1-2 4-7-6-4-1-1 5-1 2-9 1-15-8-9-4-1-2 2-36-10 7-8 8-8 13-5 9-23 1-8 1h-9l-6-3v-5l7-3 1-4 18-2h12l2-5 6-10-22-3-13-1v-1l5-1 4-12 17 1 16 3h7l13-9 14-8z" fill="#F5C5A5"/>
<path transform="translate(719,385)" d="m0 0 4 4 9 15 9 19 9 23 6 21 5 25 3 31v16l-2 24-5 26-6 22-6 15-4 3-7-2-1-3 1-7 5-17 1-10 2-6 4-23 2-21v-25l-4-29-7-30-8-23-10-21-2-3z" fill="#F9D999"/>
<path transform="translate(410,712)" d="m0 0 14 2 12 3 21 3h38l12-1 7-1-5 5-2 16 3 6-1 3 1 11-1 2-8 1-26-3-17-4-21-7v-2l-5-1-23-11-3-3 7-1 1-5-2-4-2-1z" fill="#985DB3"/>
<path transform="translate(694,503)" d="m0 0 3 4 5 15 4 11 2 3 1 2 7-1 14-1 2-1 1 2h7l7 3 1 10-3 24-3 15-3 9-5 17-4 8-5 11h-3l-1-10v-2l-14 1-3-3v-12l2-19 1-14v-12l-4-27-5-19-4-11z" fill="#CD68B5"/>
<path transform="translate(521,368)" d="m0 0 12 12 13 8 17 5h20l9-2h6l29 14 4 5 4 9 3 6v2l11 2 1 8-5 10 4 8-5-2-3-3-5-6-3-12-4-2-2-3-2 1-5-5-7-2h-10l-4-3-14-4-1-2-9 1-14-1h-8l-2-2 1-1-6-2v-2l-20-5v-4l-7-2-5-4-10-4-3-3-3-2-9 1-3-1-11 2-9 1 3-2 25-7 18-3h10z" fill="#594060"/>
<path transform="translate(370,561)" d="m0 0 2 2 6 21 8 18 6 11 10 14 9 11 14 13 13 9 13 8 15 7 14 5 15 4-4 4-3 2-1 3 6 3 17 4 11 1 1 2-6 1h-23l-4-2 3-1-24-8-21-9-6-4-8-4-8-6-12-10-7-5-4-4v-2h-2v-2h-2l-9-11-10-15-7-11-3-2h-14l-9 1-4-2 3-6h3v-2l4-1 2-3 6-2 3-2 2 3-2-6v-6l2-2v-7l3-5z" fill="#A8B7BA"/>
<path transform="translate(283,323)" d="m0 0 4 1 1 2 2-1 1 3 3-1 1 3h-2l-3 9-4 10-3 9-1 6 1 3h-2v2h-2l-3 12 4-1-1 3 1 3-1 25-3 14-1 9-5 18-4 11-3 14-2 9-2 7-1 5-2 36v11l1 6v11l-2 6-1 4h-1l-1-5-1 5-3 1-3-12v-10l-1-6v-17l1-4v-19l3-21 1-6 4-18 5-18 2-12 3-9 2-13 1-22-1-8 2-4 1-14 5-12 4-11 4-8 1-5z" fill="#383346"/>
<path transform="translate(304,495)" d="m0 0 2 1 4 33 4 17h11l9 2 1-3 4-2h3l7 20 8 17 3 5v2l-11-1h-6l-6-2-5-1-6-2 7 14 2 5h-8l-9-2h-3l1 5h-2l-8-15-8-22-5-21-1-5v-28l1-5 1 3 4-1 1-2h2l1-6h2z" fill="#887AA7"/>
<path transform="translate(287,599)" d="m0 0h3l3 8 5 1 3-3h2l1-2 7 19 4 8 4 10 4 7v3h2l9 14 2 4 2 1 2 4 7 7 3 5 22 22 15 12 4 2v2l5 2 15 9 23 11v1l-14-2v6l9 4 4 4 3 2v2l-5-1-20-9-19-11-17-12-13-11-8-7-14-14-7-9-9-11-11-17-13-24-7-16-6-18z" fill="#9E66B9"/>
<path transform="translate(655,465)" d="m0 0 4 2 8 21 4 18 1 9v31l-3 20-9 27-8 16-11 16-9 11-12 12-17 13-17 10-16 7-22 6-13 1 1-3 11-2v-2l9-2 4-4 12-6 6-4 7-4 9-3h3v-2l7-5 8-10 11-6 3-4h2l1-3h2l1-5 1-3h2l2-6 9-13 7-14 3-12 5-13 2-14v-14l1-5-2-5-1-10 2-6h2v-5h-2v-3l-4-2-3-11v-4l-2-1-2-2 1-9z" fill="#7C675E"/>
<path transform="translate(326,581)" d="m0 0 10 1 3 2 10 1 12 1 2 5-4 4-5 1-2 3h-4v2h-3l-2 6 8 1 4-1h14l5 4 10 16 7 10 7 8v2h2v2h2v2l4 2v2l4 2 9 7 9 8-3 2-6-2-14-4-12-7-12-9-14-12-13-13-8-10-5-7-2 2-8 3-6 5-10-15v-7l6-1 6 2h7l-6-11-2-4z" fill="#68BEB8"/>
<path transform="translate(640,181)" d="m0 0 2 1-15 13-4 2-1 3-5 1-1 3-3 2-1 3-4 1-3 1-25-3h-14l-16-2-19 1-3 1-30 1-16 3-24 4-15 4-7 1-3 1-5 2-3 3-10 5-4 3-7 3-3 1-1 3-7 2-1 2-9 2-4 3-2 4-8 7-6 3h-4v2l-6 3h-2l-2 5-3 1 2-5 5-4 5-5 5-4 5-2 7-10 7-6 38-19 7-2 9-3 20-5h9l9-2 13-2 1-3-10 1-6-2v-2l5-1 10-1 10-2 22-2 25 1 15-1 10 2 3-1 3 1h25l11-2v2l-4 2-1 2 14-7 4-3 6-1v-2z" fill="#423647"/>
<path transform="translate(627,308)" d="m0 0 4 1 7 5 7 6 8 7 19 19 8 7 22 22v23l-1 10-15 16-6 4h-14l2-10-7-1 3-2 12-3 8-7 2-4 1-18-3-5-16-16-8-7-17-16-19-19-6-7 1-2 5-1z" fill="#F9DA9A"/>
<path transform="translate(292,540)" d="m0 0h1l4 19 4 14v15l3 4 3 1 3 7 3 6 2 7v8l2 9h2l2 5 7 3 4 4 7 2 2 5 6 16 7 10v2l4 2 13 9 11 7 16 8 20 8 6 2-4 1-9-1-1 7 3 1 2 4-1 5-6 2-7-3-10-6-1-2-7-4-13-11-23-23v-3l-4-2-1-4-4-2v-3l-4-2-5-9-4-6v-2h-2l-8-16-14-35-6-25-3-19z" fill="#635085"/>
<path transform="translate(728,394)" d="m0 0h5l4 2 4 6 4 2 4 5 4 8v2h2l5 11 3 8 3 5 4 14 3 6 4 15 2 18 1 7 2 10v12l1 9 1 3-2 6-3 25-3 13-3 16-3 7-4 9-1 5-3 10-4 12h-2l-1 4-3 6-2 6-7 14-6 7-1 2h-2l-2 5-2 3h-2l-2 5-6 8-4 5h-2l-2 4-6 7h-2v3l-4 4h-3l-1 3-6 3-4 5h-2v2l-6 4-1 2h-2l-1 3-18 12-6 5-8 5-2-1 4-2 1-3 3-2h3l2-4 7-8 2-1-1-2h2l2-5 6-4h2l1-2 8-4 2-6h3v-2l3 1 3-5 5-3h2l1-4 5-3 3-5h2l1-5-1-5 4-1v-2l8-6 5-6 6-11 3-4h2l1-5 5-6 4-7 3-7 4-9 2-5 3-6 3-10 3-5 2-8 4-17 1-15 2-11 1-11v-25l-1-14-1-8-2-13-3-11-1-6-4-11-3-10v-3h-2l-7-14-3-2-1-6-3-1-4-6-6-5-2-1v-2h-4l-3-5z" fill="#53474E"/>
<path transform="translate(420,413)" d="m0 0h3l-1 5-3 3-2 4-2 11-3 9-2 7h-2l-2 4-6 10-1 3h-2v7l-6 9h-2l2 9-1 5-3 4-1 13-3 7-2 3v7l-1 8h-2v7l-3 13-1 7-2-1-3-18-1-13v-12l2-19 5-21 8-20 9-17 12-17 12-13z" fill="#415F6A"/>
<path transform="translate(486,380)" d="m0 0 4 1 8-1 4 2 3 4 11 4 3 3 7 3 2 3 6 2 12 3 3 3 4 2v3h-9l-9-2-7-5h-6l-4 3h-7l-7-3-13-2-4 3h-3v-2l-7 1-5 2-1 2-4 1-18 10-3 3-10 5-5 3-6 5-4 6-3 2 2-6 5-6 3-8 4-3h2l1-3 5-3 7-5 1-2h2v-2h2l2-5 3-6 1-7 4-3 13-3z" fill="#443C5A"/>
<path transform="translate(466,322)" d="m0 0h3l2 7-1 6 3 1v10l-4 4h-2v2l-4 1-4 2-1 4v10l-7 6-18 10-16 12-12 11-5 6-2-1 7-17 12-22 11-16 11-13 8-8 8-7z" fill="#485367"/>
<path transform="translate(692,209)" d="m0 0 1 4-2 10-1 3h-2l-1 4-5 10-4 10-2 4-2 2-6 10-3 6-2 9-6 15-2 9-3 11-2 5h-5l-20-20 1-5 16-21 12-17 14-19 13-18 8-11z" fill="#795670"/>
<path transform="translate(698,410)" d="m0 0v3 3l8 5h8l6 1 2-1 6 10 2 2 9 27 6 26 3 23v5l-2-4-5-20-6-17-13-25-14-20-4 2-8 8-16 8-11 2h-11l-10-2 3 5v4l-3-1-4-7 2-1 1-5 2-5-1-6-4-2h34l9-6 7-7z" fill="#7C675E"/>
<path transform="translate(684,499)" d="m0 0 2 1 3 6 4 6v6l1 4-1 8 4 12 4 6 3 7 1 5v32l-2 9-5 6 1 16-2 6-2 8-3 3-10 5-6 2-12 20-7 13-3 1 2-5 9-16 8-17 6-17 7-28 2-13 1-13v-25l-2-24z" fill="#7C675F"/>
<path transform="translate(671,192)" d="m0 0 7 2-5 5-13 11-13 10-11 9-30 24-13 11-9 6-1-1v-37l2-4 6-1 3 1 7-1h4l1-2h5v-2l6-1 3-3 11-3v-2l11-6 6-4 5-1 5-5 9-5z" fill="#7D685F"/>
<path transform="translate(604,631)" d="m0 0 3 1v3l5 1-3 7-7 8-5 2v2l-9 2-1 2-5 2-10 6-12 6h-2l-2 4-9 1v2l-6 2-5 1-1 2-9 1h-17l-16-2-10-2 3-1 1-2 7 1 3-1 9-2 12-6 10-4 10-2 24-12h2l1-2 4-1v-2l9-3v-2h5l3-3 11-7 3 1z" fill="#584060"/>
<path transform="translate(485,229)" d="m0 0h24l3 1-1 6-3 7-5 1-28 2-28 5-11 3-8 3 12 5 9 3-3 2-29 9-4-1-4-6v-7l-3-1v-2l-3-1 2-3 8 2 3-1v-6l-4-2v-2l25-8 27-6z" fill="#AAC3B7"/>
<path transform="translate(637,629)" d="m0 0 5 4 8 1 5 1 1 1v10l-9 16-2 6-1 10h2v2l6-2 3-3v4l-10 15-9 11-8 9h-4l-3-3v-2h-2v-2l-4-2v-2h-2l2-4 8-8 7-9 5-5 5-9h-2l-5-6-6-1-9 6-7-1-1-4-6-2 4-4 9-7 10-9 7-7z" fill="#F8C7A4"/>
<path transform="translate(594,375)" d="m0 0 5 1 36 17 7 8 6 13 16 1v1l6 1-2 1-1 9 11 1v1h-26l-11-1-3-1-10-20-19-10-11-5-9 1-6 1h-20l-5-1v-2l-7-2v-3l5-2 2-3 8-1 19-2z" fill="#F47E9C"/>
<path transform="translate(374,571)" d="m0 0 3 1 7 8 8 8 3 7 3 5 1 4h4l3 6 2 5 3 1 7 8 7 6 3 3v2h2v2h4v2l4 2 3 2 1 3 4 2 3 3 8 5 7 8 2 4 2 8-7-2-17-9-12-8-10-8-15-14-12-16-8-13-8-17-5-14z" fill="#415F6A"/>
<path transform="translate(745,429)" d="m0 0 6 5 5 10 4 5 4 18 2 10 4 12v9l1 8v16l1 3 1 16-2 17-1 1-2 20-2 6-3 12-4 9-5 15-3 8h-2l-1 4-3 8-4 5h-2l-2 4-4 7-3-1 8-16 9-21 6-18 6-26 3-20 1-16v-16l-3-31-5-25-6-21-4-11z" fill="#685C50"/>
<path transform="translate(379,340)" d="m0 0h2l-1 4h-2l-1 3-4 4h-2l-2 7-3 4-5 10-2 5-6 9-5 13-4 12-5 14-4 26-1 11v34l1 15h-1l-2-13v-54l-8-4-2-4-9-3 1-6 8-17 12-20 10-14 11-13 9-10 4-2z" fill="#635085"/>
<path transform="translate(579,689)" d="m0 0 3 1-13 8-15 8-25 9-19 4-3 1-12 1h-38l-21-3-12-3v-1l11 1 12 2v-2l4-2h3l-1-3 3-4 5-2h50l32-5 11-2 20-6z" fill="#635084"/>
<path transform="translate(442,267)" d="m0 0h5l-2 2-17 5-8 3-5 1-1 4-4 5-11-1-6 3-3 3-4 2 1 8-4 6 5 2 19-13 10-6 9-4 3 1-21 12-18 12-13 10-13 11-9 9-3-1v-2l-19 4-13 4 2-4h2l2-4 5-6h2l2-4 13-12 14-11 12-9 21-12 19-9z" fill="#544770"/>
<path transform="translate(358,377)" d="m0 0 5 1 6 11 1 5-2 5-5 1-9 6-2 5v9l3 1 2 3-2 17-7 19-3 4-2 16-2 3v7l-2 5h-3l-2 2-1-1v-34l3-26 4-18 6-15 4-13z" fill="#485267"/>
<path transform="translate(648,322)" d="m0 0 4 2 10 10 7 1 2 4 6 3v-2h2v-2l-2-1-1-2v-7l4 4 2 4 5 5 3 4 3 8 4 4 1 3 6 2 5 3v2l4 2 3 2v2l4 2 2 5-1 6h-1l-1 15-1 8 8 15 2 5-1 3-5-9h-2l-13-1-8-4-3-4 4-6 1-10v-23l-27-27-8-7-18-18z" fill="#54484E"/>
<path transform="translate(706,243)" d="m0 0h2l-2 4-4 5-4 8h-2l-2 7-8 10-4 8v10l-1 6 2 9 5 8 4 5 3 6 5 4 3 7 5 6 3 3 5 8 3 1v2l5 2 5 7 7 6v2l3 1 5 5 3 5-1 2-6-5-5-3v-3l-4-2-7-7-8-4-7-3-5-3h-6l-6-7-4-9-4-6-4-3v-3l-3-1-6-17-1-5 1-11 2-6 2-8 8-14 6-5 1-3 3-3 2-4h2l2-4 1-3 4-2z" fill="#423748"/>
<path transform="translate(686,169)" d="m0 0h7l10 6 4 2-1 3 2 1-3 1-2-2h-6l-14 11-4 3-8-1-8 3-5 3h-2l-2 4-4 2-5 2-6 4-6 3h-2v2l-6 3-6 1-6-2-3-3-5-2 1-3 4-2 2 1v-2l4-2 4-1 4-4 14-7 5-3h2v-2h3l1-2 10-6 14-6 8-2 1-2z" fill="#60514F"/>
<path transform="translate(706,427)" d="m0 0 4 2 14 21 13 25 3 9v6h-7l-6 2h-6l-13-26-6-8-8-3-7-8-4-1v-2l13-7z" fill="#FADB98"/>
<path transform="translate(494,266)" d="m0 0h6v3l-5 3h-3v5l6 2 1 2-19 4-20 7-24 10-4 2-11 2-5 1-7 7-4-1-1-2 1-2h-2l-1-2-5 2-3-1 19-12 27-14 29-10 19-5z" fill="#AAC4B7"/>
<path transform="translate(683,476)" d="m0 0h6l8 9 4 6 2 5 7 2 12-1 3 6 6 22 1 10-2 2-16 1h-5l-3-3-4-9-5-17-2-6h-2l-11-23v-3z" fill="#F77E9A"/>
<path transform="translate(627,738)" d="m0 0 3 1-1 2h2l1 7-8 5-7 4-2 2-9 2-23 8-12 3-15 2-11 1-14 1-5-2-2-4v-2l3-1v-2l32-4 20-5h3v-2l18-6 18-8 7-1z" fill="#F77F9A"/>
<path transform="translate(652,480)" d="m0 0h4l4 15 3 2v3h2v2l2 1h-2v2h-2l-1 7 2 13 1 4-1 3v13l-3 17-5 12-2 10-4 8-5 9-7 10-3 6h-2l-1 5-1 3-6 5-4 4-10 5 1-6h2l1-4h2l2-4 4-5 5-10 5-8h2l2-5 6-13 4-14 3-8 3-16 1-2 2-16-1-6v-10l1-11-1-7-1-4 1-6h-2z" fill="#675C50"/>
<path transform="translate(707,575)" d="m0 0h1l1 6h23v8h6l3-3-1 8-6 21-4 8-5 11h-3l-1-10v-2l-14 1-3-3v-12l2-19z" fill="#9F67B8"/>
<path transform="translate(347,460)" d="m0 0 3 3-1 16-1 2 1 4 2 26h1l3 41 4 20 5 16 2 8-3-3-14-28-7-19-4-15-3-15-1-19 3-3 2 1 2-14 2-7 1-10z" fill="#4D5D7B"/>
<path transform="translate(410,712)" d="m0 0 14 2 12 3 21 3 34 1v1l-30 1-5 2-2 11 4 1-1 6-2 3h-2v2l-6 2-10-2v-2l-5-1-23-11-3-3 7-1 1-5-2-4-2-1z" fill="#7D57A4"/>
<path transform="translate(591,684)" d="m0 0h2l4 6 4 4 11 4-1 5-12 10-18 12-10 4-5-2-3-3-1-9v-9l5-5 13-9v-3l3-2z" fill="#F77F9A"/>
<path transform="translate(473,290)" d="m0 0 4 1-1 4-5 3 1 9-4 4-7 2-4 5-3 2-4 11v5l-10 9-7 8-4-4v-8l-1-1-2 6-3 2-3-1 2-3 1-6 2-2 2-7 3-1 2-6-1-2-6 2 5-5 10-8 19-12z" fill="#887AA7"/>
<path transform="translate(573,290)" d="m0 0 5 1 7 5 2 6 4 2 4 4v3l3 1 8 1 3-2 1-4 12 11 13 12-4 3-5 1-7 3-9 1-9-1-5-3-3-3-3-2 2-1-6-3-4-6-3-10-1-3h2l-3-5v-2h-2l-2-5z" fill="#795771"/>
<path transform="translate(689,657)" d="m0 0 1 4-3 6v9l3 2 5-3h2v-2l5-3-2 4-9 11-11 12-8 8-11 9-12 9-17 11-5 3-10 2-1-3 2-3h2v-2l11-7 8-5 2-3h2l6-12 10-10 10-5 7-8 5-10z" fill="#674773"/>
<path transform="translate(703,613)" d="m0 0h1l1 7 2 2h7l3-1 4 1 1 7 1 2-1 3h2l-2 6-10 18-9 13-6 2v2l-8 4-3-3v-9l6-14 5-13 5-20z" fill="#7D57A2"/>
<path transform="translate(572,676)" d="m0 0h2l1 3-3 2-7 1-5 2-1 8h12l-3 2-17 5-22 3-19-1-20-5-4-4 1-4 5-2 3-2 14 1h17l16-1 22-5z" fill="#CDA4B0"/>
<path transform="translate(455,372)" d="m0 0 2 1 1 6 5 4 3 2-7 3-15 8-13 9-10 8-12 12-5 6-3-3-2-7-2-5 11-12 11-10 10-7 13-8z" fill="#8A9CBA"/>
<path transform="translate(287,599)" d="m0 0h3l3 8 5 1 3-3h2l1-2 7 19 4 8 4 10 4 7v3h2l9 14-4 2-3 4v7h-3l-11-17-13-24-7-16-6-18z" fill="#965CB2"/>
<path transform="translate(337,356)" d="m0 0h4l-2 4-13 17-9 14-9 16-9 19-6 16-3-2 2-7 4-13 2-4 2-3h2v-25l-1-1-1-8-2-4h-3l-1-3 13-6 13-5z" fill="#544770"/>
<path transform="translate(515,278)" d="m0 0h7l-2 7-4 2-9 1-3 2-2-2v-3l-13 4-5 2 4 1v2l6-1 8 1 3 1v5l-5 1v2l-24 13-17 12-8 7-2-1 1-5 4-10 5-4 3-4 8-1 1-8-1-4 6-4-1-5 24-8v-1z" fill="#80669C"/>
<path transform="translate(582,638)" d="m0 0 2 1-4 4h-2v2l-9 3v2h-3l-1 2-14 8-5 2-11 5-10 2-6 2h-13l-18-4-19-9-3-4 5 1 12 3 9 1 7-2h7l5-1h9l10-1 4 1 5-2 11-5 9-2 4-3 12-2z" fill="#443C5A"/>
<path transform="translate(706,183)" d="m0 0h1v5h2v3h2v12l-4 9-2 11-3 8h-2v3l-3 3-4 7-2 1-3 6-2 5-5 5-1 2h-2l-2 4-2 6h-4l1-5h2l-1-4-3-1 3-6 2-3h2l1-4 4-10 2-1 1-6 4-7h2l1-9 1-5-1-1v-3l10-14 4-5z" fill="#675C50"/>
<path transform="translate(679,700)" d="m0 0 6 4 1 5-5 6-4 5-14 11-14 10-21 12-9 4-3-1 15-8v-7h-2v-2l-9 2v-2l14-7 12-8 14-10 10-9 6-3z" fill="#F39FA4"/>
<path transform="translate(692,209)" d="m0 0 1 4-2 10-1 3h-2l-1 4-5 10-4 10-2 4-2 2-4 1-9 4h-4l-1 2-3-1v11l-1 3h-2l-1 5-2 3h-2l-2 4-3 7-9 9-6-3 1-5 16-21 12-17 14-19 13-18 8-11z" fill="#7D6860"/>
<path transform="translate(308,337)" d="m0 0 5 1 7 4 1 4 5-1 3 1 3 3 2 9-23 7-10 5-18 8-5 2 2-5 11-16 13-17z" fill="#9E68B8"/>
<path transform="translate(313,553)" d="m0 0h2l8 22 8 16 4 7-1 2h-7l-9-2h-3l1 5h-2l-8-15-7-19v-6l8-5 4-4z" fill="#8A9FBB"/>
<path transform="translate(622,388)" d="m0 0 5 1 9 5 6 7 6 13 16 1v1l6 1-2 1-1 9 11 1v1h-26l-11-1-3-1-10-20-12-7 2-1 2-4 3-5z" fill="#F39FA4"/>
<path transform="translate(567,241)" d="m0 0h2v20l-1 17 15 7 10 6 13 12 3 3 1 5-4 3-9-1-2-2v-3l-4-2-6-7v-3l-4-2-9-6-5-8-3-7-3-3-2-6h-10l-5 2 7-11 10-10z" fill="#7B5975"/>
<path transform="translate(676,373)" d="m0 0h2v2l6 2 3 3 1 3-1 18-4 6-7 6-6 2h-7l-3-3 1-3-3-2 2-2 2-13h2v-11h2v-2l5-1 1-2 3 1z" fill="#605150"/>
<path transform="translate(292,540)" d="m0 0h1l4 19 4 14v15l3 4 3 1 3 7 3 6 2 7v8l2 9h2l2 5 7 3 4 4 7 2 2 5 6 16 3 5-5-2-1-3-11-3-5-5-3-5v-2h-2l-8-16-14-35-6-25-3-19z" fill="#54476F"/>
<path transform="translate(515,195)" d="m0 0 29 1 15-1 10 2 3-1 3 1h25l11-2v2l-6 4-6 2-11 1-7-2-8 1-14-1h-16l-4 1-5-1-22 3h-9l-12 2-3-3-10 1-6-2v-2l5-1 10-1 10-2z" fill="#373246"/>
<path transform="translate(617,635)" d="m0 0 1 3v9l-8 9-15 10-15 8-16 6-22 5h-7l1-3 11-2v-2l9-2 4-4 12-6 6-4 7-4 9-3h3v-2l7-5 8-10z" fill="#7A5771"/>
<path transform="translate(703,373)" d="m0 0 4 4 3 7h7l2 5v12l-1 8 8 15 2 5-1 3-5-9h-2l-13-1-8-4-3-4 4-6 1-10 1-23z" fill="#60514F"/>
<path transform="translate(694,503)" d="m0 0 3 4 5 15 4 11 2 3 1 2 7-1 14-1 2-1 1 2h7l7 3 1 10-3 24-1 5h-1l-1-6-7-4h-1l-2-22-4-1h-8l-6 1-3-2-3 1v4h-2l-6-26-6-18z" fill="#D680B1"/>
<path transform="translate(630,468)" d="m0 0 1 3h2v19h2v3l2 1v16l2 7 1 12 1 14-3 16-4 14-3 5-8 15-3 5-4 2-2 7-2 1-2 5-6 8-3-1 2-6 4-4 3-7 2-3 7-14h2l2-7 7-22 1-2 2-16 3-12v-13l-4-8v-14h-2z" fill="#474443"/>
<path transform="translate(633,749)" d="m0 0 3 1-1 3-23 11-7 3h-4l-1 2-22 7-8 3-6 1h-8l-7 2h-11l-4-1v-2l-17 1-1 1h-29l-5-1-12-2-8-3-6-1v-2l-9-2-1-3-2-1 10 2 21 5 19 3 10 1h34l23-3 20-4 24-8 25-11z" fill="#6A4A72"/>
<path transform="translate(445,339)" d="m0 0 2 4v3l-5 3-6 13-2 2-3 4-1 9 3 6-2 4-9 6-13 11-8 8-1 2-2-1 7-17 12-22 11-16 11-13z" fill="#4D5D7A"/>
<path transform="translate(574,727)" d="m0 0 3 1 3 10 3 5 3 2-19 9-12 4h-6l-1-7-5-6-2-4 18-7z" fill="#D67FB1"/>
<path transform="translate(392,356)" d="m0 0v3l-15 25-11 26-6 19-5 23-3 23-1 40h-1l-2-32-2 1 1-6h1l1-15-1-5 6-18 2-16-5-6v-7l3-6 10-7 4 1 3-9 9-17v-4h-6l-2-4 4-4 7-1 3 2h2v-2h2z" fill="#425F6C"/>
<path transform="translate(456,211)" d="m0 0 7 1v3l-27 6-3 1-5 2-3 3-10 5-4 3-7 3-3 1-1 3-7 2-1 2-9 2-4 3-2 4-8 7-6 3h-4v2l-6 3h-2l-2 5-3 1 2-5 5-4 5-5 5-4 5-2 7-10 7-6 38-19 7-2 9-3 12-3z" fill="#39414C"/>
<path transform="translate(532,258)" d="m0 0 9 3 2 4-1 6-4 7-23 1-8 1h-9l-6-3v-5l7-3 1-4 18-2h12z" fill="#CDA4AF"/>
<path transform="translate(620,219)" d="m0 0 4 1 1 8v6l-7 1-7 5-5 1-9 4-3 2-9-1v24l-2-1v-37l2-4 6-1 3 1 7-1h4l1-2h5v-2l6-1z" fill="#7A5671"/>
<path transform="translate(530,308)" d="m0 0h11l9 5 6 8 1 5-4 6-7 3-7-1-9-3v-2l-2-1v-3l-3 1-7-2 4-8 6-7z" fill="#443C5A"/>
<path transform="translate(350,670)" d="m0 0 4 2 9 4 6 1 9 6 5 5 13 6 5 2 3 3 10 3 10 4 16 4 3 1v2h2v2h2v2h-8l-18-4-16-6-20-9-14-9-10-7-7-5z" fill="#54476F"/>
<path transform="translate(510,718)" d="m0 0 4 1-3 1-2 3-2 16 3 6-1 3 1 11-1 2-8 1-20-2 2-7 1-5h13v-6h-2v-2h2l-3-12-2-6z" fill="#9F67B9"/>
<path transform="translate(701,375)" d="m0 0h1v23l-1 10-15 16-6 4h-14l2-10-7-1 3-2 12-3 8-7 2-4 1-10 2-1 1 3h8l3 1z" fill="#F6C5A4"/>
<path transform="translate(579,689)" d="m0 0 3 1-13 8-15 8-25 9-19 4-7 1 2-1v-3h4l-1-6-2-2 6-3 10-2v-1l29-4 26-8z" fill="#7A5672"/>
<path transform="translate(685,177)" d="m0 0h11l-2 5-13 11-4 1-6-1-8 3-5 3h-2l-2 4-4 2-5 2-6 4-6 3h-2v2l-6 3-6 1-1-2h2v-2l13-9 4-2v-2l6-2v-2l7-4 3-3 10-6 17-7z" fill="#675C50"/>
<path transform="translate(689,657)" d="m0 0 1 4-3 6v9l3 2 5-3h2v-2l5-3-2 4-9 11-11 12-8 8-11 9-8 6-4-2 2-3h2l2-4 3-1v-2l6-5 10-17 5-12 4-7z" fill="#654F82"/>
<path transform="translate(285,456)" d="m0 0 2 1-2 11-6 31-1 10v44l3 20 4 19 2 7 5 15v3l-3-1-6-15-3-10-1-1-2-16-5-25 1-7-1-3v-25l1-13 5-16 3-16 2-9z" fill="#574873"/>
<path transform="translate(727,457)" d="m0 0 3 4 8 17 2 6v6h-7l-6 2h-6l-13-26v-3l4 4h15l1-1z" fill="#F7C6A4"/>
<path transform="translate(422,338)" d="m0 0 1 3-1 4-1 2 5-2 2-6 2 2v8l2 3-1 4-8 10-6 10-5 2-2-1v-3h-2l-2-10 1-2-2-2 2-2 5-9z" fill="#5684B8"/>
<path transform="translate(394,503)" d="m0 0h1v12l-4 10-1 6 3 6 3 11 1 6 5 13 1 3v20l1 4h2l6 9 9 6v7l1 4-4-3-2-9-4-2-3-1-8-11-1-5-1-6-3-8-4-6-2-1-3-13-1-7 1-5v-10l-1-4 4-8 1-3 1-11z" fill="#443C5A"/>
<path transform="translate(489,361)" d="m0 0h7l-3 10-3 6-24 7-5-1-4-4-1-6 4-3 17-6z" fill="#D17EB0"/>
<path transform="translate(706,182)" d="m0 0h5l1 6 1 1 1 12-7 26-5 10h-2l-2 6-4 8h-2v4l-3 2-3 8-5 10-6 11-2 11-3-1 1-10-1-2 2-5-1-5 3-1 1-6 3-4h2l2-4 7-11 2-4 2-1 5-9h2v-3h2l1-6 2-5 1-8 4-9v-10l1-2h-2v-3h-2z" fill="#53464E"/>
<path transform="translate(618,234)" d="m0 0h8l-1 4-9 7-10 8-13 11-8 5v-23h9l6-4 10-3 7-4z" fill="#80669B"/>
<path transform="translate(495,244)" d="m0 0h21l22 3v3l-8 13-12 1h-12l2-2h3v-2l-3-1 2-2-2-3 3-5-9-1-8-2z" fill="#694974"/>
<path transform="translate(405,255)" d="m0 0 8 2 4-2 1 2 1-2h7v3l6 1 17 6-3 2-29 9-4-1-4-6v-7l-3-1v-2l-3-1z" fill="#A9C3B7"/>
<path transform="translate(609,759)" d="m0 0 3 1-24 9-21 5-19 3-10 1h-23l-7-3-1-5h-2l-2-7h39v1l-6 1h-9l1 3-3 2 2 4 5 1 15-1 9-1 19-3 20-6z" fill="#D67FB1"/>
<path transform="translate(326,581)" d="m0 0 10 1 3 2 10 1 12 1 2 5-4 4-5 1-2 3h-4v2h-3l-2 5-2 2-6-8-9-16z" fill="#5584B8"/>
<path transform="translate(421,393)" d="m0 0m-2 1 2 1-2 2 2 6h7l2 3-9 7-12 12-5 6-3-3-2-7-2-5 11-12z" fill="#8CA0BB"/>
<path transform="translate(662,474)" d="m0 0 3 3 4 12v2h11l1-2 3 8 3 17 2 17v6l-2-3-3-13v-4l-10-2-1 22h-1l-1-22-3-20-6-18z" fill="#F4C3A5"/>
<path transform="translate(706,183)" d="m0 0h1v5h2v3h2v12l-4 9-2 11-3 8h-2v3l-3 3-4 7-2 1-3 6-2 5-5 5-1 2h-2l-2 4-2 6h-4l1-5h2l-1-5 7-8 1-3h2v-2h2l2-5 6-10h2l1-4 6-12 1-13 2-11 1-2h-2l2-4z" fill="#60514F"/>
<path transform="translate(517,425)" d="m0 0h7l12 11 11 9 8 8h-3l-14-13-11-9-5-4-5 1-8 7-10 9-11 9-12 11-8 7-10 9-11 9-10 9-1 6 7 8 16 17 5 1 14-13 11-9 13-12 8-7 10-8 2 2-5 3-12 11-11 9-7 7-11 9-9 9-3 2-5-1-6-5-7-8-12-13-1-7 8-8 8-7 10-9 11-9 12-11 8-7 14-12 10-9z" fill="#634765"/>
<path transform="translate(370,316)" d="m0 0h6l3 2-3 5-11 9-10 10-3-1v-2l-19 4-13 4 2-4h2l2-4 5-6h3 2v2l10-1 7-3 3-4 4-4 4-1v-2h2v-2z" fill="#635084"/>
<path transform="translate(639,335)" d="m0 0 7 6 17 16 13 12 6 6-1 2-3-2-1 1-11 3v2l-4-1 1-2h-5l2-4-6-1-2 1-1-2v-8l4-2 1-5-3-6-14-14z" fill="#53474E"/>
<path transform="translate(782,595)" d="m0 0 1 4-2 9-7 21-4 7-5 13-2 6h-2l-2 5-7 12-6 9h-2l-1 4-6 8-1 3-3-1-7 1h-2l2-5 6-4 2-3h2l2-4 6-8h2l2-5 4-2v-2h2l2-7 5-9 4-7 3-7 4-8 1-4h2l1-6z" fill="#423C46"/>
<path transform="translate(327,512)" d="m0 0 3 1 3 8-1 7 1 7 5 3v3l-1 4-3 3-9-1-3-3 2-1v-6l-3-1-5 1-3-1 1-6 2-3 3-4 2-5h5z" fill="#985CB3"/>
<path transform="translate(703,342)" d="m0 0 4 2 4 5 5 8 3 1v2l5 2 5 7 7 6v2l3 1 5 5 3 5-1 2-6-5-5-3v-3l-4-2-7-7-8-4-7-3-5-3h-6l1-5-3-6h2l-2-5 3 1v-2l4 1z" fill="#423C46"/>
<path transform="translate(569,282)" d="m0 0 9 2 10 5 5 2 13 12 3 3 1 5-4 3-9-1-2-2v-3l-4-2-6-7v-3l-4-2-9-6z" fill="#7F659A"/>
<path transform="translate(686,169)" d="m0 0h7l8 5 1 2-7-2h-9l-16 5-7 3h-2v2l-9 5h-3v2l-5 3h-2l-1 3-8 5-4 3h-2v2h-3v2l-7 4-4 2-6-1-2-1 1-3 4-2 2 1v-2l4-2 4-1 4-4 14-7 5-3h2v-2h3l1-2 10-6 14-6 8-2 1-2z" fill="#53474E"/>
<path transform="translate(705,601)" d="m0 0h1l1 6 2 1 15 1 3 3 2 4 4-2-3 9-5 11h-3l-1-10v-2l-14 1-3-3v-12z" fill="#965DB0"/>
<path transform="translate(473,290)" d="m0 0 4 1-1 4-15 9-11 8-10 9-8 7-6 5 2-5h2l2-6-1-2-6 2 5-5 10-8 19-12z" fill="#899FBB"/>
<path transform="translate(362,591)" d="m0 0 4 4 3 4 3 6 6 2 2 6 3 1-1 10-3-3-7-11-3-2h-14l-9 1-4-2 3-6h3v-2l4-1 2-3 6-2z" fill="#8A9FBB"/>
<path transform="translate(515,357)" d="m0 0 3 4 4 9v2l-23 3-9 1 6-15-3-1 18-2z" fill="#80659C"/>
<path transform="translate(429,319)" d="m0 0 3 1 1 3-3 5-3 3-2 6-7 6-6 8-4 6-1-3-1-5-4-1-2 1 2-4 10-11 1-2h2v-2l8-7z" fill="#68BDB8"/>
<path transform="translate(494,266)" d="m0 0h6v3l-5 3h-3v5l6 2 1 2-19 4-5 2h-3l1-9-3-2v-2l-4-1 22-6z" fill="#A9B7BA"/>
<path transform="translate(651,262)" d="m0 0h2v11l-1 3h-2l-1 5-2 3h-2l-2 4-3 7-9 9-6-3 1-5 16-21z" fill="#80669B"/>
<path transform="translate(617,260)" d="m0 0 2 2v23l-3 1-2 4-7-6-9-7 10-10z" fill="#A068BA"/>
<path transform="translate(579,307)" d="m0 0 9 3 11 6 7 7 3 6-1 3-10-3-9-2-5-4-4-10z" fill="#F7E4AC"/>
<path transform="translate(591,656)" d="m0 0 3 1-4 2-5 5-4 5-4 1-1 2-1 1h-3v4l-12 4-18 4h-7l1-3 11-2v-2l9-2 4-4 12-6 6-4 7-4z" fill="#684974"/>
<path transform="translate(644,428)" d="m0 0 21 1 3 2-1 4-2 3-3 7-6 2-8-1 3 5v4l-3-1-4-7 2-1 1-5 2-5-1-6z" fill="#7A5671"/>
<path transform="translate(577,628)" d="m0 0 5 1h3l-2 5-3 2 1 2-3 4-7 2-8 1-4 3-4 1h-10l-8-1v-1l11-3 9-2 5-1v-2h2v-2h2l1-3h3l1-2z" fill="#423747"/>
<path transform="translate(684,384)" d="m0 0 2 1 1 16-4 6-7 6-6 2h-7l-3-3 1-2h2v-2l4-2 3-5 9-4h2l1-2v-3l2-1z" fill="#675B50"/>
<path transform="translate(561,411)" d="m0 0 18 1 6-1v3l12 2 4 1 4 4 2 5-6-2-10-2-8-2-14-1-10-4-4-3z" fill="#443C5A"/>
<path transform="translate(444,766)" d="m0 0 10 2 21 5 19 3 23 3-1 2h-29l-5-1-12-2-8-3-6-1v-2l-9-2-1-3z" fill="#684873"/>
<path transform="translate(433,239)" d="m0 0 4 1-4 4h-2l-1 4-1 1h3l1-2 5 2 6 2v1l-8 2-8 3-2 1v-3h-7l-1 3-2-4-1-5-3-1v-2z" fill="#A7B5BA"/>
<path transform="translate(655,465)" d="m0 0 4 2 8 21v13l-2 1v-2h-2v-3l-4-2-3-11v-4l-2-1-2-2 1-9z" fill="#7A5870"/>
<path transform="translate(515,278)" d="m0 0h7l-2 7-4 2-9 1-3 2-2-2v-3l-13 4-12 5-2-4 3-2 21-7v-1z" fill="#8879A6"/>
<path transform="translate(314,633)" d="m0 0 3 3 6 11v3h2v5l-4 1-2 6-2-4-4-4v-4l-3-1-2-3-1-7 1-5 3 1z" fill="#9F67B9"/>
<path transform="translate(700,408)" d="m0 0h1v5l6-1 2-3 7 1 2-1 8 15 2 5-1 3-5-9h-2l-13-1-8-4-3-4z" fill="#685C50"/>
<path transform="translate(431,386)" d="m0 0h2l5 6 2 6-9 7-6-1h-3l-3-3-1-4 5-6z" fill="#A9B7BA"/>
<path transform="translate(706,243)" d="m0 0h2l-2 4-4 5-4 8h-2l-2 7-8 10-4 8v5h-4-4l1-6 8-14 6-5 1-3 3-3 2-4h2l2-4 1-3 4-2z" fill="#423D46"/>
<path transform="translate(550,289)" d="m0 0 13 2 5 2v2l5 1 2 1v2h2l3 5v2h-2l3 7 1 5h-2l-1-3-2-1v-2h-2l-2-6-5-2-8-6v-2l-8-2-7-1z" fill="#674871"/>
<path transform="translate(360,717)" d="m0 0 4 2 16 13 17 11 16 9 1 3-2 2-12-3-3-3v-2l-7-2-3-5-2-1v-2h-2l-5-5v-2l-4-1-10-8z" fill="#55466F"/>
<path transform="translate(625,322)" d="m0 0 6 4 4 5-5 2-4 1-7 3-9 1-9-1-5-3-2-4 6 1 10 3v-2l10-6 4-1z" fill="#674870"/>
<path transform="translate(650,416)" d="m0 0h11l9 1-2 1-1 9 11 1v1h-26l-6-1 3-9 2-1z" fill="#F1A0A5"/>
<path transform="translate(512,230)" d="m0 0 17 1 6 1-4 4-4 1-4 8-20-1v-1l5-1 2-6z" fill="#D2A7AF"/>
<path transform="translate(474,365)" d="m0 0 4 1-1 3-1 5-3 3h-2l1 5-9 2-6-5-1-6 4-3z" fill="#CBA3AF"/>
<path transform="translate(423,293)" d="m0 0h9l2 3-1 5-2 1 1 2-11 2-5 1-7 7-4-1-1-2 5-5 3-1 5-9z" fill="#7BDDB5"/>
<path transform="translate(357,425)" d="m0 0 3 1-2 11-4 21-2 17-1 40h-1l-2-32-2 1 1-6h1l1-15-1-5 6-18 2-13z" fill="#415F6A"/>
<path transform="translate(364,398)" d="m0 0 3 1-2 9-6 19-4-4-4-5v-7l3-6z" fill="#4D5E7B"/>
<path transform="translate(292,540)" d="m0 0h1l4 19 4 14v15l3 4 3 1 1 7-3 6-3-4-5-18-4-21-1-8z" fill="#655088"/>
<path transform="translate(308,599)" d="m0 0 4 4 3 10v8l2 9h2l6 18v2h-2l-8-16-10-25 1-8z" fill="#54476F"/>
<path transform="translate(760,319)" d="m0 0 4 4 4 8 6 2 6 5 2 7-9-9-5 1v2l-3 1-5-1-1 3h-3l2-4 1-1-8-5v-4h10z" fill="#30313C"/>
<path transform="translate(411,351)" d="m0 0 4 2 1 7h2v7l1 3-2 6-5 2-2-1v-3h-2l-2-10 1-2-2-2 2-2z" fill="#4BA5B7"/>
<path transform="translate(663,273)" d="m0 0 1 4-2 7-5 12-2 9-3 11-2 5-5-2 1-6h2l1-12 5-11 2-1 2-6z" fill="#674772"/>
<path transform="translate(639,243)" d="m0 0h1v12l-9 13-4 4v-19l9-8z" fill="#CFA5B0"/>
<path transform="translate(556,222)" d="m0 0h9v2l2 1-11 7-4 3h-7l-4-2-2-3 6-5 8-2z" fill="#684973"/>
<path transform="translate(493,281)" d="m0 0h8v1l-15 4-15 6-15 8h-7l1-5 18-7 16-5z" fill="#515D7D"/>
<path transform="translate(634,414)" d="m0 0 6 2 6-2 2 1h16v1l-12 1-3 3-2 7-1 1-8-1-5-9z" fill="#F1819D"/>
<path transform="translate(436,284)" d="m0 0 2 1-5 2v2h-2v2l-5 3-5 1-4 2-4 8-7 4h-3l-1-2-5 2-3-1 19-12z" fill="#A3B0B9"/>
<path transform="translate(522,404)" d="m0 0h7l6 5 9 2 7 1v3l-6-1v4l-9-2-5-1-1-3-9-3z" fill="#423747"/>
<path transform="translate(284,649)" d="m0 0h2l3 9h2l9 15v2l3 1 3 5v2l-5-2-4-5-2-1v-2l-2-1-5-8-3-5z" fill="#30313C"/>
<path transform="translate(830,542)" d="m0 0 2 1-1 4-3 5 3 12-4 7-1 3-2-2-1-11-1-3 1-9 1-2 5-2z" fill="#30313C"/>
<path transform="translate(561,253)" d="m0 0h6v14l-1 6h-3l-4-9-4-4 3-5z" fill="#7D57A4"/>
<path transform="translate(640,181)" d="m0 0 2 1-15 13-4 2-1 3-5 1-1 3-3 2-1 3h-4l2-6 7-7 7-5 6-1v-2z" fill="#423D45"/>
<path transform="translate(493,360)" d="m0 0h10l2 2-1 5-5 8-9 1 6-15z" fill="#7F58A6"/>
<path transform="translate(337,356)" d="m0 0h4l-2 4-5 5-4 3h-6l-4-3v-2l-3-1z" fill="#624F84"/>
<path transform="translate(374,571)" d="m0 0 3 1 7 8 2 7v8l-4 1-8-21z" fill="#4C5D79"/>
<path transform="translate(566,635)" d="m0 0 1 2 2 1-2 6-7 3-5 2h-10l-8-1v-1l11-3 9-2 5-1v-2h2v-2h2z" fill="#423C46"/>
<path transform="translate(679,404)" d="m0 0h3l1 3-7 6-6 2h-7l-3-3 3-3 10-3z" fill="#78576D"/>
<path transform="translate(356,560)" d="m0 0 5 2v2h2l3 6v10l-2 2-2 4-6-23z" fill="#67B9B8"/>
<path transform="translate(696,437)" d="m0 0m-2 1 2 1-2 4 9 13-1 2-8-3-7-8-4-1v-2z" fill="#F6C6A4"/>
<path transform="translate(702,380)" d="m0 0h1l1 11 1 2 4 2 5 2v5l-4 6-4-3-3-1-1-7z" fill="#675C50"/>
<path transform="translate(447,296)" d="m0 0 4 1 1 2h2v2l-15 10h-2v-2l3-2-5-3-4 1 3-3z" fill="#4C526C"/>
<path transform="translate(515,278)" d="m0 0h7l-2 7-4 2-9 1-3 2-2-2v-3l-2-1 9-3 6-1z" fill="#7C58A4"/>
<path transform="translate(301,491)" d="m0 0 4 1-1 9h-2l-1 6h-2l-1 3h-4l-1-7 2-1 2-6z" fill="#80669C"/>
<path transform="translate(605,225)" d="m0 0h6l-4 3-9 5-9 2-5 1 1-8 6-1 3 1 7-1h4z" fill="#674773"/>
<path transform="translate(493,293)" d="m0 0 9 1 3 1v5l-5 1v2l-4 2h-3l-2-5 1-6z" fill="#7D57A5"/>
<path transform="translate(617,260)" d="m0 0 2 2v23l-2 1v-10l-4-4-6-3 5-5z" fill="#D47EB1"/>
<path transform="translate(609,759)" d="m0 0 3 1-24 9-21 5-19 3-4-1 7-3 12-1 12-2 20-6z" fill="#D57CB1"/>
<path transform="translate(405,255)" d="m0 0 8 2 4-2v3h2v7l-2 3h-3v-2l-4-1-2-4h-2v-2l-3-1z" fill="#7BDEB6"/>
<path transform="translate(621,282)" d="m0 0 4 1 4 5-2 4-3 1-10-1-2-1 1-2 5-4z" fill="#F6C6A4"/>
<path transform="translate(537,362)" d="m0 0h3l5 5 7 3 1 2 8 3 9 2v1l-9 1-11-4-10-7-3-5z" fill="#694971"/>
<path transform="translate(307,613)" d="m0 0 3 3 3 6 3 3 1 5h2l6 18v2h-2l-8-16-4-10-4-9z" fill="#645086"/>
<path transform="translate(300,573)" d="m0 0 3 4 6 15 3 7-2 2-3-5-1-3h-3l-3-6z" fill="#4E5C7B"/>
<path transform="translate(295,625)" d="m0 0 3 4 8 17 11 19 3 4v2l-3-1-3-5-1-4-3-1-3-6-3-9h-2l-4-9-3-6z" fill="#584974"/>
<path transform="translate(476,695)" d="m0 0 9 1 22 5 7 1v1l-10 1h-11l-4-2 3-1-16-5z" fill="#ABC7B8"/>
<path transform="translate(375,580)" d="m0 0 2 1 4 10-1 4-2 2-5-1-2-5 1-4 3-2z" fill="#AAC4B7"/>
<path transform="translate(728,658)" d="m0 0h3l-2 6-6 10h-2l-1 4h-2l-2 4-2 2-2-1 2-4 12-17z" fill="#6A5D52"/>
<path transform="translate(425,304)" d="m0 0h5l-4 3-17 10h-3v-3l5-3 5-5 5-1z" fill="#A6BDB8"/>
<path transform="translate(527,246)" d="m0 0 11 1v3l-3 3-6 2-4-1-1-5z" fill="#675081"/>
<path transform="translate(380,360)" d="m0 0 4 1 1 4-4 6-1-2h-6l-2-4 4-4z" fill="#485367"/>
<path transform="translate(791,536)" d="m0 0h1v23l-1 11-3 9-3 12-1-4 4-21 1-8 1-5z" fill="#423D46"/>
<path transform="translate(411,264)" d="m0 0 1 2h2l3 3 2 1 10 1-3 2-9 3-4-1-4-6z" fill="#A7B3B9"/>
<path transform="translate(426,287)" d="m0 0 3 1-21 12-14 9v-3l13-9 10-6z" fill="#4F5778"/>
<path transform="translate(512,674)" d="m0 0 2 1-5 3-6 3-2 2-1-1-1 2-10-1-6-1 3-1 1-2 7 1 3-1 9-2z" fill="#574B72"/>
<path transform="translate(725,280)" d="m0 0 8 2v2h2l4 4-1-4h-2v-2h4l5 9h-4l1 3-4-1-5-5-4-5-4-2z" fill="#2F303B"/>
<path transform="translate(579,691)" d="m0 0 2 1-11 8-4 3h-2l-2 4-6 1-3-2 23-13z" fill="#D57DB1"/>
<path transform="translate(299,588)" d="m0 0h2l3 4 3 1 1 7-3 6-3-4z" fill="#645086"/>
<path transform="translate(694,503)" d="m0 0 3 4 5 15 4 11 2 3 1 2 2 1-5 1-2 2-4-18-6-18z" fill="#D170B4"/>
<path transform="translate(436,253)" d="m0 0h5l-2 7 3 1v1l-7-1-8-4 3-2z" fill="#4C506C"/>
<path transform="translate(442,267)" d="m0 0h5l-2 2-17 5-8 3-11 4-4-1 15-6z" fill="#4D5A76"/>
<path transform="translate(413,278)" d="m0 0h2l-1 4-4 5-9-1-1-2 5-3z" fill="#53476E"/>
<path transform="translate(256,504)" d="m0 0h1l-1 17h-2l-1 2h-2l-1-7 2-6 2 1z" fill="#30313C"/>
<path transform="translate(738,160)" d="m0 0h2v3h2v2h2l4 8 1 6-1 9h-1l-2-10-3-12-4-2z" fill="#202229"/>
<path transform="translate(345,276)" d="m0 0v3l-10 6-7 6h-2v2h-2v2h-2l-1 2 1-4 3-3h2v-2l5-5 5-1v-2z" fill="#39414C"/>
<path transform="translate(364,570)" d="m0 0h2v10l-2 2-2 4-3-13h3z" fill="#859DBB"/>
<path transform="translate(659,226)" d="m0 0 2 1-9 13-3 2v-6l5-6z" fill="#F9C8A4"/>
<path transform="translate(346,339)" d="m0 0h6l2 4-6 5-2-2v-3l-5-2v-1z" fill="#8876A8"/>
<path transform="translate(669,447)" d="m0 0h6v3l-8 3-8-3 1-2z" fill="#E87FA4"/>
<path transform="translate(561,253)" d="m0 0h6v14h-1l-1-5-3-2v-3l-4-2z" fill="#80669C"/>
<path transform="translate(689,657)" d="m0 0 1 4-3 6h-2l-2 6-6 10-1-2 5-10z" fill="#664875"/>
<path transform="translate(679,404)" d="m0 0h3l1 3-7 6-6 1 1-3h2v-2l4-3h2z" fill="#7B675F"/>
<path transform="translate(490,376)" d="m0 0 2 1-1 2-13 4-12 1 3-2z" fill="#5E486E"/>
<path transform="translate(593,666)" d="m0 0 3 1-2 5-4 1-6 1-5 1 3-3z" fill="#F2C1A5"/>
<path transform="translate(459,475)" d="m0 0h2l-2 4-14 12-5 4-2-1 12-11 8-7z" fill="#624665"/>
<path transform="translate(274,389)" d="m0 0h2l1 2h2v8l-2 1-1-2-1 5-2-4-1-4z" fill="#30313C"/>
<path transform="translate(594,375)" d="m0 0 5 1 5 3-2 1-4-2-7 1-6 2h-10l4-2 12-3z" fill="#EA94A8"/>
<path transform="translate(745,307)" d="m0 0 3 1 2 3v5l-8-3-2-4z" fill="#30313C"/>
<path transform="translate(363,745)" d="m0 0 4 2 9 7v2l4 2 1 2-9-3-5-7-4-4z" fill="#423647"/>
<path transform="translate(360,717)" d="m0 0 4 2 15 12-4 1-11-9z" fill="#574872"/>
<path transform="translate(502,348)" d="m0 0 3 3v4l-7 3-3-3 5-5z" fill="#54476F"/>
<path transform="translate(639,335)" d="m0 0 7 6 17 16-1 2-17-16-6-6z" fill="#564B4D"/>
<path transform="translate(439,841)" d="m0 0 4 1 3 2-2 4-3 1-5-4 1-3z" fill="#30313C"/>
<path transform="translate(324,677)" d="m0 0 5 5 11 13-1 2-4-5-5-3-6-10z" fill="#5B4A79"/>
<path transform="translate(507,279)" d="m0 0h8l-2 2-11 3-6 2v-3l3-3z" fill="#836DA0"/>
<path transform="translate(263,592)" d="m0 0 2 3 2 7 2 5v5l-3-3-2-6-2 1-1-8z" fill="#30313C"/>
<path transform="translate(667,656)" d="m0 0 2 1-2 5-6 10-4 8-3 1 2-5 9-16z" fill="#7D6860"/>
<path transform="translate(586,629)" d="m0 0 3 1-1 4-3 4-5 1-1-3 4-2 2-4z" fill="#423A46"/>
<path transform="translate(471,524)" d="m0 0 2 1-9 8-5-1-6-5v-2l4 2 3 3 5-1z" fill="#614664"/>
<path transform="translate(544,266)" d="m0 0 2 1-2 8-1 1-1 3-2-1-1 1h-12v-1h11l2-5z" fill="#684975"/>
<path transform="translate(436,577)" d="m0 0 2 1-3 4 2 5 8 9-1 2-9-9-3-4 1-5z" fill="#6D5190"/>
<path transform="translate(593,328)" d="m0 0 10 1 7 3v2l-6-1-6-2-8-1z" fill="#715569"/>
<path transform="translate(455,372)" d="m0 0 2 1 1 6 2 3-7-2-1-3-2-1 3-3z" fill="#A5B0B8"/>
<path transform="translate(395,614)" d="m0 0 3 2v2l3 1v3h2l-1 5-5-5-3-6z" fill="#4E5D7B"/>
<path transform="translate(436,284)" d="m0 0 2 1-5 2v2h-2v2l-5 3h-4v-3z" fill="#A5B4BB"/>
<path transform="translate(493,281)" d="m0 0h8v1l-15 4-6 1-2-2z" fill="#61537F"/>
<path transform="translate(720,671)" d="m0 0 2 1-2 6h-2l-2 4-2 2-2-1 2-4z" fill="#6A5C57"/>
<path transform="translate(403,281)" d="m0 0 2 1-12 7-3 3-4 1v-3z" fill="#4C5974"/>
<path transform="translate(366,676)" d="m0 0 11 6v3l-9-3-3-3z" fill="#485367"/>
<path transform="translate(686,514)" d="m0 0h1l2 17v6l-2-3-3-13 1-3z" fill="#EABBA8"/>
<path transform="translate(411,332)" d="m0 0h2l-2 4-10 11-4 4 2-5 3-4h2l3-6h2z" fill="#435F6D"/>
<path transform="translate(494,266)" d="m0 0h6v3l-5 3-4-1 1-4z" fill="#ABC6B8"/>
<path transform="translate(235,436)" d="m0 0 3 1-1 2-2-1 2 9v4l-5-2 2-4-1-1 1-7z" fill="#202229"/>
<path transform="translate(414,297)" d="m0 0h2l-1 5-3 4h-3v-6z" fill="#ABC6B8"/>
<path transform="translate(617,260)" d="m0 0 2 2v23l-2 1 1-22-3 1-2-2z" fill="#CFA3B0"/>
<path transform="translate(739,757)" d="m0 0 2 4-2 5-6 2 1-3h3v-2h-2l2-4z" fill="#30313C"/>
<path transform="translate(492,334)" d="m0 0 3 2-1 5-7-1 2-4z" fill="#443C5A"/>
<path transform="translate(604,840)" d="m0 0 5 1-2 5-3 1-2-1v-5z" fill="#30313C"/>
<path transform="translate(672,297)" d="m0 0h1l1 7-1 7-1 3-2-1v-8l1-7z" fill="#443C5A"/>
<path transform="translate(752,396)" d="m0 0 5 3v2l3 1 4 8-1 2-3-3-4-7-4-4z" fill="#423D46"/>
<path transform="translate(319,380)" d="m0 0 2 2-1 4-3 5h-3l1-5 3-4z" fill="#614F81"/>
<path transform="translate(585,374)" d="m0 0 5 1 1 2-6 2-6-1v-2z" fill="#68496F"/>
<path transform="translate(405,255)" d="m0 0 7 2v3l-1 2-5-1v-2l-3-1z" fill="#68BFB8"/>
<path transform="translate(381,210)" d="m0 0h2l-1 4-8 3-3-1 5-4z" fill="#202229"/>
<path transform="translate(550,773)" d="m0 0h11v2l-17 2 3-3z" fill="#D479B2"/>
<path transform="translate(435,255)" d="m0 0 3 1v4l4 1v1l-7-1-3-2 1-3z" fill="#505C7C"/>
<path transform="translate(343,697)" d="m0 0h2v2l6 1 1 4h-2l-1 2-6-6z" fill="#945DB1"/>
<path transform="translate(358,377)" d="m0 0 1 3-8 14-1-4z" fill="#54476F"/>
<path transform="translate(376,794)" d="m0 0 7 2 1 2 5 2-1 2-7-2z" fill="#202229"/>
<path transform="translate(351,705)" d="m0 0 5 2v2h2l1 4h-3l-6-7z" fill="#925BB0"/>
<path transform="translate(285,339)" d="m0 0 2 1h2l-1 5-3 4h-3z" fill="#30313C"/>
<path transform="translate(447,858)" d="m0 0 5 1-1 4-4 1-1-3-2-1z" fill="#30313C"/>
<path transform="translate(469,702)" d="m0 0 11 1-1 2h-12l-1-2z" fill="#4A5E77"/>
<path transform="translate(676,423)" d="m0 0 5 1 2 2-5 2-5-1 1-3z" fill="#F2A1A5"/>
<path transform="translate(475,286)" d="m0 0h5v2l-7 3-4-1 3-3z" fill="#4C546E"/>
<path transform="translate(315,770)" d="m0 0 5 1-2 5-4-1-1-3z" fill="#30313C"/>
<path transform="translate(633,749)" d="m0 0 3 1-1 3-6 3-3-1h2v-3z" fill="#67486E"/>
<path transform="translate(252,537)" d="m0 0 4 2v8l-4-1-1-6z" fill="#30313C"/>
<path transform="translate(757,314)" d="m0 0 2 1 1 4-3 1-5-2v-3z" fill="#2F303B"/>
<path transform="translate(370,614)" d="m0 0h2v2h2v4l-5 1-1-4z" fill="#4BA6B7"/>
<path transform="translate(532,247)" d="m0 0h6v3l-3 3-3-3z" fill="#79597A"/>
<path transform="translate(488,849)" d="m0 0h4l-2 4-3 1-4-2 2-2z" fill="#30313C"/>
<path transform="translate(688,744)" d="m0 0h5l1 2-4 4v-3l-4 3 1-4z" fill="#353244"/>
<path transform="translate(736,738)" d="m0 0 4 1h-3l-2 7-4-1h2v-5z" fill="#202229"/>
<path transform="translate(514,701)" d="m0 0h7l1 2-6 1h-12v-1h10z" fill="#99A2B6"/>
<path transform="translate(553,408)" d="m0 0 8 2v2h-8l-2-2z" fill="#53474E"/>
<path transform="translate(498,405)" d="m0 0 7 1-1 3-10 1v-2h4z" fill="#413D46"/>
<path transform="translate(702,175)" d="m0 0 5 1-1 4 2 1-3 1-4-3-3-2h4z" fill="#5D4F53"/>
<path transform="translate(825,490)" d="m0 0 4 1 1 3-3 2-4-1z" fill="#30313C"/>
<path transform="translate(493,368)" d="m0 0 2 3v2l4 2-9 1z" fill="#8866A3"/>
</svg>
